<svg id="Layer_1" data-name="Layer 1" xmlns="http://www.w3.org/2000/svg" viewBox="0 0 4551.2 2045.28"><defs><style>.cls-1{fill:#fff;}.cls-2{fill:none;}.cls-3{fill:#231f20;}.cls-4{fill:#d42029;}</style></defs><title>RCOS</title><path class="cls-1" d="M3380,.5c-119.91,0-217.13,97.21-217.13,217.13S3260.11,434.76,3380,434.76s217.14-97.21,217.14-217.13S3499.94.5,3380,.5Zm96.26,309.9a18,18,0,0,1-5,26,18.2,18.2,0,0,1-24-4.93l-51.95-69.87a17.93,17.93,0,0,1,4.53-26.18,18.35,18.35,0,0,1,5.57-2.33,51.18,51.18,0,0,0,38.76-51.51c-.89-27.29-24.74-49.59-52-49.59h-60.47a5.78,5.78,0,0,0-5.78,5.78V321.19a17.94,17.94,0,0,1-19.57,17.86,18.18,18.18,0,0,1-16.3-18.26V114.07a17.93,17.93,0,0,1,17.93-17.93h83.94c47.29,0,86.76,37.27,88.16,84.54a87,87,0,0,1-42.51,77.6h0Z" transform="translate(0.77 0)"/><path class="cls-1" d="M3400.05,686.78c-1.76-59.32-51.28-106.08-110.61-106.08H3184.13a22.5,22.5,0,0,0-22.5,22.5V862.56c0,11.73,8.77,21.89,20.45,22.92a22.51,22.51,0,0,0,24.55-22.41V633a7.25,7.25,0,0,1,7.25-7.26h75.88c34.26,0,64.18,28,65.3,62.22a64.23,64.23,0,0,1-48.64,64.63,22.5,22.5,0,0,0-12.67,35.77L3358.94,876c7,9.41,20.1,12.33,30.09,6.18a22.5,22.5,0,0,0,6.32-32.63l-48.63-65.4h0A109.19,109.19,0,0,0,3400.05,686.78Z" transform="translate(0.77 0)"/><path class="cls-1" d="M3578.31,625.7a106.74,106.74,0,0,1,76,31.47,22.5,22.5,0,1,0,31.82-31.82,151.44,151.44,0,0,0-107.79-44.65c-84,0-152.43,68.39-152.43,152.44s68.38,152.43,152.43,152.43a151.43,151.43,0,0,0,107.79-44.64,22.5,22.5,0,0,0-31.82-31.82,107.44,107.44,0,1,1-76-183.41Z" transform="translate(0.77 0)"/><path class="cls-1" d="M3860.9,580.7c-84.05,0-152.43,68.39-152.43,152.44s68.38,152.43,152.43,152.43,152.44-68.38,152.44-152.43S3945,580.7,3860.9,580.7Zm0,259.87a107.44,107.44,0,1,1,107.44-107.43A107.55,107.55,0,0,1,3860.9,840.57Z" transform="translate(0.77 0)"/><path class="cls-1" d="M4262.74,760.42h0a72,72,0,0,0-22.17-24.28,113.66,113.66,0,0,0-30.27-14.37c-10.7-3.35-21.95-6.29-33.44-8.75-11.3-2.42-22.48-4.73-33.23-6.87a177.91,177.91,0,0,1-28.4-8,68,68,0,0,1-20.31-11.64c-4.76-4.1-7.73-9.53-9.07-16.61a33.67,33.67,0,0,1,1-17.15,39.19,39.19,0,0,1,10.15-16c5-5,12-9.13,20.86-12.37,9-3.32,20.47-5,34-5a105.27,105.27,0,0,1,25.8,3.17,66.93,66.93,0,0,1,21.38,9.44,44.14,44.14,0,0,1,14,15.69c3.4,6.36,5.13,14.12,5.13,23.08s6,22,22.37,22c8.17,0,13.11-3.39,15.82-6.23,5.81-6.12,5.9-14.38,5.85-16a88.1,88.1,0,0,0-7-34.7,81.16,81.16,0,0,0-21.12-29c-9.24-8.18-20.92-14.69-34.72-19.34-13.6-4.58-29.61-6.9-47.58-6.9-17.63,0-33.51,2.18-47.2,6.47-13.86,4.35-25.63,10.33-35,17.78A77.84,77.84,0,0,0,4048,631.37a70,70,0,0,0-7.39,31c0,14.94,3.11,27.59,9.24,37.61a75.25,75.25,0,0,0,23.45,24.12,120.8,120.8,0,0,0,31.7,14.31c11.27,3.35,23,6.29,34.85,8.73,11.48,2.37,22.92,4.85,34,7.38a128.63,128.63,0,0,1,27.73,9.44,52.42,52.42,0,0,1,18.06,13.91c4.15,5.12,6.16,11.86,6.16,20.61a46.17,46.17,0,0,1-3.74,18.37,40.58,40.58,0,0,1-11.43,15c-5.3,4.46-12.41,8.09-21.14,10.78-9,2.78-19.95,4.19-32.56,4.19a132.45,132.45,0,0,1-30.55-3.38,71.06,71.06,0,0,1-24-10.36,55.17,55.17,0,0,1-16.49-18c-4.25-7.32-6.92-16.48-7.95-27.14,0-2.44-.56-10.86-6.53-17.12-4-4.17-9.5-6.44-15.95-6.55-7.88-.11-12.81,3.18-15.54,6-6.48,6.68-6.53,16.31-6.48,18.14,0,16.13,3.08,30.44,9.1,42.55A86.44,86.44,0,0,0,4068,861.62a109.81,109.81,0,0,0,37.87,18.14,175.78,175.78,0,0,0,46.05,5.8c36.77,0,65.94-7.56,86.7-22.47,21.62-15.52,32.58-37.63,32.58-65.7C4271.19,782.84,4268.34,770.4,4262.74,760.42Z" transform="translate(0.77 0)"/><path class="cls-1" d="M3540.63,1715.72c-1.75-59.31-51.27-106.07-110.61-106.07H3324.71a22.5,22.5,0,0,0-22.5,22.5v259.36c0,11.73,8.77,21.89,20.46,22.92a22.5,22.5,0,0,0,24.54-22.41V1661.9a7.26,7.26,0,0,1,7.26-7.25h75.87c34.26,0,64.19,28,65.31,62.22A64.24,64.24,0,0,1,3447,1781.5a22.51,22.51,0,0,0-12.67,35.77l65.19,87.65c7,9.42,20.09,12.33,30.08,6.19a22.5,22.5,0,0,0,6.33-32.63l-48.64-65.4h0A109.16,109.16,0,0,0,3540.63,1715.72Z" transform="translate(0.77 0)"/><path class="cls-1" d="M3718.9,1654.65a106.76,106.76,0,0,1,76,31.47,22.5,22.5,0,0,0,31.82-31.82,151.44,151.44,0,0,0-107.79-44.65c-84.05,0-152.44,68.38-152.44,152.43s68.39,152.44,152.44,152.44a151.44,151.44,0,0,0,107.79-44.65,22.5,22.5,0,0,0-31.82-31.82,107.44,107.44,0,1,1-76-183.4Z" transform="translate(0.77 0)"/><path class="cls-1" d="M4001.49,1609.65c-84,0-152.43,68.38-152.43,152.43s68.38,152.44,152.43,152.44,152.44-68.38,152.44-152.44S4085.54,1609.65,4001.49,1609.65Zm0,259.87a107.44,107.44,0,1,1,107.44-107.44A107.56,107.56,0,0,1,4001.49,1869.52Z" transform="translate(0.77 0)"/><path class="cls-1" d="M4403.32,1789.37h0a71.84,71.84,0,0,0-22.18-24.27,113.92,113.92,0,0,0-30.26-14.38c-10.71-3.34-22-6.28-33.44-8.75-11.31-2.41-22.49-4.72-33.23-6.87a177.92,177.92,0,0,1-28.4-8,68,68,0,0,1-20.31-11.65c-4.76-4.09-7.73-9.52-9.07-16.6a33.56,33.56,0,0,1,1-17.15,39.18,39.18,0,0,1,10.15-16c5-5,12-9.12,20.86-12.37,9-3.32,20.47-5,34-5a105.12,105.12,0,0,1,25.79,3.17,66.77,66.77,0,0,1,21.39,9.44,44.33,44.33,0,0,1,14,15.69c3.4,6.35,5.12,14.12,5.12,23.08s6,22,22.38,22c8.17,0,13.11-3.39,15.81-6.24,5.82-6.11,5.9-14.37,5.86-15.94a88.24,88.24,0,0,0-7-34.7,81.28,81.28,0,0,0-21.12-29c-9.24-8.18-20.92-14.69-34.72-19.34-13.6-4.58-29.61-6.9-47.58-6.9-17.63,0-33.52,2.18-47.21,6.47-13.86,4.34-25.62,10.32-35,17.78a77.74,77.74,0,0,0-21.69,26.41,70,70,0,0,0-7.39,31c0,14.93,3.11,27.58,9.24,37.6a75.36,75.36,0,0,0,23.44,24.13,121.2,121.2,0,0,0,31.71,14.31c11.27,3.35,23,6.28,34.85,8.73,11.48,2.37,22.92,4.85,34,7.37a130.11,130.11,0,0,1,27.73,9.44,52.66,52.66,0,0,1,18.06,13.92c4.14,5.12,6.16,11.86,6.16,20.61a46,46,0,0,1-3.75,18.37,40.55,40.55,0,0,1-11.42,15c-5.3,4.46-12.42,8.08-21.14,10.78-9,2.78-19.95,4.19-32.56,4.19a131.89,131.89,0,0,1-30.55-3.39,71,71,0,0,1-24-10.35,55.05,55.05,0,0,1-16.49-18c-4.25-7.32-6.93-16.49-8-27.15,0-2.43-.56-10.86-6.53-17.12-4-4.17-9.5-6.43-15.95-6.54-7.88-.11-12.81,3.17-15.55,6-6.48,6.68-6.53,16.31-6.47,18.15,0,16.12,3.08,30.44,9.1,42.54a86.56,86.56,0,0,0,25.41,30.68,109.67,109.67,0,0,0,37.86,18.14,175.86,175.86,0,0,0,46.06,5.8c36.76,0,65.93-7.56,86.69-22.48,21.62-15.52,32.58-37.62,32.58-65.69C4411.77,1811.78,4408.93,1799.34,4403.32,1789.37Z" transform="translate(0.77 0)"/><path class="cls-2" d="M3188.5,1510.82H4368.34a167,167,0,0,1,167,167v192.3a167,167,0,0,1-167,167H3355.55a167,167,0,0,1-167-167V1510.82a0,0,0,0,1,0,0Z"/><path class="cls-1" d="M4363.39,2045.28H3350.6a187.55,187.55,0,0,1-187-187V1498.89a20,20,0,0,1,20-20H4363.39a187.53,187.53,0,0,1,187,187v192.31a187.53,187.53,0,0,1-187,187Zm-1152.6-526.39a7.24,7.24,0,0,0-7.24,7.24v332.11a147.55,147.55,0,0,0,147,147H4363.39a147.53,147.53,0,0,0,147-147V1665.93a147.53,147.53,0,0,0-147-147Z" transform="translate(0.77 0)"/><path class="cls-1" d="M3401.34,1088C3399.59,1028.72,3350.21,982,3291,982H3186a22.48,22.48,0,0,0-22.44,22.5v259.36c0,11.73,8.75,21.89,20.41,22.92a22.46,22.46,0,0,0,24.47-22.41V1034.22a7.25,7.25,0,0,1,7.24-7.26h75.67c34.17,0,64,28,65.13,62.22a64.21,64.21,0,0,1-48.5,64.63,22.26,22.26,0,0,0-7,2.92,22.54,22.54,0,0,0-5.67,32.85l65,87.66c7,9.41,20,12.32,30,6.18a22.54,22.54,0,0,0,6.31-32.63l-48.51-65.4h0A109.24,109.24,0,0,0,3401.34,1088Z" transform="translate(0.77 0)"/><path class="cls-1" d="M3579.13,1027a106.33,106.33,0,0,1,75.77,31.47,22.47,22.47,0,1,0,31.73-31.82A150.83,150.83,0,0,0,3579.13,982c-83.83,0-152,68.38-152,152.44s68.2,152.43,152,152.43a150.83,150.83,0,0,0,107.5-44.65,22.47,22.47,0,1,0-31.73-31.82,106.33,106.33,0,0,1-75.77,31.47c-59.08,0-107.15-48.2-107.15-107.43S3520.05,1027,3579.13,1027Z" transform="translate(0.77 0)"/><path class="cls-1" d="M3861,982c-83.83,0-152,68.38-152,152.44s68.2,152.43,152,152.43,152-68.38,152-152.43S3944.8,982,3861,982Zm0,259.87c-59.08,0-107.15-48.2-107.15-107.43S3801.89,1027,3861,1027s107.15,48.2,107.15,107.44S3920.05,1241.83,3861,1241.83Z" transform="translate(0.77 0)"/><path class="cls-1" d="M4261.73,1161.68h0a71.68,71.68,0,0,0-22.11-24.28,113.75,113.75,0,0,0-30.19-14.38c-10.68-3.34-21.9-6.28-33.35-8.75-11.28-2.41-22.43-4.72-33.14-6.86a177,177,0,0,1-28.33-8,67.56,67.56,0,0,1-20.25-11.65c-4.75-4.09-7.71-9.52-9.05-16.6a33.78,33.78,0,0,1,1-17.15,39.21,39.21,0,0,1,10.12-16c5-5,12-9.12,20.8-12.37,9-3.32,20.42-5,33.95-5a104.62,104.62,0,0,1,25.72,3.17,66.66,66.66,0,0,1,21.33,9.44,44.13,44.13,0,0,1,14,15.69c3.39,6.36,5.11,14.12,5.11,23.08s6,22,22.32,22c8.15,0,13.08-3.39,15.77-6.23,5.8-6.12,5.89-14.38,5.84-15.95a88.26,88.26,0,0,0-6.94-34.7,81.23,81.23,0,0,0-21.06-29c-9.22-8.18-20.87-14.69-34.63-19.34-13.57-4.58-29.53-6.9-47.45-6.9-17.59,0-33.43,2.18-47.09,6.47-13.82,4.34-25.55,10.32-34.87,17.78a77.7,77.7,0,0,0-21.64,26.41,70.08,70.08,0,0,0-7.37,31c0,14.93,3.1,27.59,9.21,37.61a75.27,75.27,0,0,0,23.39,24.12,120.73,120.73,0,0,0,31.62,14.31c11.24,3.35,22.94,6.28,34.76,8.73,11.45,2.37,22.86,4.85,33.91,7.37a129.07,129.07,0,0,1,27.66,9.45,52.41,52.41,0,0,1,18,13.91c4.13,5.12,6.14,11.86,6.14,20.61a46.17,46.17,0,0,1-3.74,18.37,40.46,40.46,0,0,1-11.39,15c-5.29,4.46-12.38,8.08-21.09,10.78-9,2.78-19.89,4.19-32.47,4.19a131.26,131.26,0,0,1-30.47-3.39,70.68,70.68,0,0,1-23.93-10.35,55.06,55.06,0,0,1-16.45-18c-4.24-7.32-6.91-16.48-7.93-27.15,0-2.43-.56-10.86-6.51-17.11-4-4.18-9.48-6.44-15.91-6.55-7.86-.11-12.77,3.17-15.5,6-6.46,6.68-6.51,16.32-6.46,18.15,0,16.12,3.07,30.44,9.07,42.55a86.66,86.66,0,0,0,25.35,30.67,109.34,109.34,0,0,0,37.76,18.14,175,175,0,0,0,45.94,5.8c36.66,0,65.75-7.56,86.46-22.47,21.56-15.53,32.49-37.63,32.49-65.7C4270.16,1184.09,4267.33,1171.65,4261.73,1161.68Z" transform="translate(0.77 0)"/><path class="cls-1" d="M3163.55,1339.51h17.73a20.7,20.7,0,0,1,8,1.32,13.6,13.6,0,0,1,4.95,3.34,11.42,11.42,0,0,1,2.52,4.56,17.81,17.81,0,0,1,.72,4.88,13,13,0,0,1-.86,4.66,13.34,13.34,0,0,1-2.45,4,14.14,14.14,0,0,1-3.92,3.07,13.61,13.61,0,0,1-5.16,1.53l14.31,23h-8.54L3178,1367.7h-7.61v22.21h-6.84Zm6.84,22.21h9a25,25,0,0,0,3.95-.32,10.52,10.52,0,0,0,3.48-1.18,6.36,6.36,0,0,0,2.46-2.45,9.89,9.89,0,0,0,0-8.33,6.43,6.43,0,0,0-2.46-2.45,10.75,10.75,0,0,0-3.48-1.18,25,25,0,0,0-3.95-.32h-9Z" transform="translate(0.77 0)"/><path class="cls-1" d="M3208.3,1375.39a8.46,8.46,0,0,0,1,4,10,10,0,0,0,2.53,3.09,11.61,11.61,0,0,0,3.63,2,13.15,13.15,0,0,0,4.27.71,9.53,9.53,0,0,0,5.2-1.39,16.74,16.74,0,0,0,4.05-3.67l4.84,3.71q-5.33,6.9-14.94,6.9a18.63,18.63,0,0,1-7.23-1.35,15.75,15.75,0,0,1-5.48-3.74,16.68,16.68,0,0,1-3.45-5.62,19.82,19.82,0,0,1-1.21-7,18.38,18.38,0,0,1,1.32-7,17.15,17.15,0,0,1,3.63-5.63,16.53,16.53,0,0,1,5.51-3.73,17.8,17.8,0,0,1,7-1.36,16.73,16.73,0,0,1,7.58,1.57,15,15,0,0,1,5.09,4.09,16.16,16.16,0,0,1,2.88,5.7,23.83,23.83,0,0,1,.89,6.44v2.28Zm20.22-5.13a13.66,13.66,0,0,0-.68-3.91,8.65,8.65,0,0,0-1.81-3.1,8.27,8.27,0,0,0-3-2.06,11,11,0,0,0-4.23-.75,10.47,10.47,0,0,0-7.62,3.2,10.81,10.81,0,0,0-2.1,3.17,8.66,8.66,0,0,0-.75,3.45Z" transform="translate(0.77 0)"/><path class="cls-1" d="M3242.07,1356.17h6.41v5.19h.14a9.35,9.35,0,0,1,4.2-4.37,13.83,13.83,0,0,1,6.9-1.68,14.58,14.58,0,0,1,4.66.75,10.61,10.61,0,0,1,3.92,2.31,11.36,11.36,0,0,1,2.67,4,15.44,15.44,0,0,1,1,5.8v21.71h-6.4V1370a11.37,11.37,0,0,0-.64-4,7.41,7.41,0,0,0-1.71-2.71,6.24,6.24,0,0,0-2.46-1.49,9,9,0,0,0-2.88-.47,10.61,10.61,0,0,0-3.7.64,7.77,7.77,0,0,0-3,2,9.58,9.58,0,0,0-2,3.53,15.82,15.82,0,0,0-.71,5v17.37h-6.41Z" transform="translate(0.77 0)"/><path class="cls-1" d="M3298.36,1364.64a9.79,9.79,0,0,0-2.82-2.39,8.09,8.09,0,0,0-4.09-1,7.81,7.81,0,0,0-3.95,1,3.08,3.08,0,0,0-1.67,2.82,3.22,3.22,0,0,0,1,2.42,7.69,7.69,0,0,0,2.28,1.49,13.13,13.13,0,0,0,2.81.85l2.56.5a29.9,29.9,0,0,1,3.88,1.21,10.84,10.84,0,0,1,3.13,1.85,8.07,8.07,0,0,1,2.07,2.78,9.68,9.68,0,0,1,.74,4,9.32,9.32,0,0,1-1.21,4.88,10.12,10.12,0,0,1-3.13,3.31,13.25,13.25,0,0,1-4.38,1.85,21.71,21.71,0,0,1-4.94.57,19.64,19.64,0,0,1-7.37-1.28,13.29,13.29,0,0,1-5.66-4.7l4.84-4a20.54,20.54,0,0,0,3.49,2.77,8.62,8.62,0,0,0,4.7,1.21,12.2,12.2,0,0,0,2.45-.25,7.59,7.59,0,0,0,2.21-.78,5,5,0,0,0,1.57-1.35,3.13,3.13,0,0,0,.6-1.89,3.27,3.27,0,0,0-.89-2.35,6.56,6.56,0,0,0-2.13-1.46,16,16,0,0,0-2.64-.85l-2.45-.54c-1.38-.33-2.69-.71-3.92-1.13a12.08,12.08,0,0,1-3.27-1.71,7.91,7.91,0,0,1-2.28-2.71,8.67,8.67,0,0,1-.85-4,9.18,9.18,0,0,1,1.1-4.6,9.73,9.73,0,0,1,2.92-3.23,13.08,13.08,0,0,1,4.13-1.93,17.63,17.63,0,0,1,4.66-.64,17.22,17.22,0,0,1,6.55,1.28,10.44,10.44,0,0,1,5,4.28Z" transform="translate(0.77 0)"/><path class="cls-1" d="M3329.13,1364.64a9.88,9.88,0,0,0-2.81-2.39,8.11,8.11,0,0,0-4.09-1,7.78,7.78,0,0,0-3.95,1,3.07,3.07,0,0,0-1.68,2.82,3.19,3.19,0,0,0,1,2.42,7.64,7.64,0,0,0,2.27,1.49,13.48,13.48,0,0,0,2.81.85l2.57.5a30.39,30.39,0,0,1,3.88,1.21,10.84,10.84,0,0,1,3.13,1.85,8,8,0,0,1,2.06,2.78,9.52,9.52,0,0,1,.75,4,9.32,9.32,0,0,1-1.21,4.88,10.23,10.23,0,0,1-3.13,3.31,13.25,13.25,0,0,1-4.38,1.85,21.86,21.86,0,0,1-5,.57,19.59,19.59,0,0,1-7.36-1.28,13.23,13.23,0,0,1-5.66-4.7l4.84-4a19.78,19.78,0,0,0,3.49,2.77,8.59,8.59,0,0,0,4.69,1.21,12.23,12.23,0,0,0,2.46-.25,7.69,7.69,0,0,0,2.21-.78,4.89,4.89,0,0,0,1.56-1.35,3.14,3.14,0,0,0,.61-1.89,3.27,3.27,0,0,0-.89-2.35,6.72,6.72,0,0,0-2.14-1.46,15.86,15.86,0,0,0-2.63-.85l-2.46-.54c-1.37-.33-2.68-.71-3.91-1.13a12,12,0,0,1-3.28-1.71,7.88,7.88,0,0,1-2.27-2.71,8.67,8.67,0,0,1-.86-4,9.29,9.29,0,0,1,1.1-4.6,9.84,9.84,0,0,1,2.92-3.23,13.18,13.18,0,0,1,4.13-1.93,17.69,17.69,0,0,1,4.66-.64,17.22,17.22,0,0,1,6.55,1.28,10.35,10.35,0,0,1,5,4.28Z" transform="translate(0.77 0)"/><path class="cls-1" d="M3346.38,1375.39a8.35,8.35,0,0,0,1,4,10,10,0,0,0,2.52,3.09,11.72,11.72,0,0,0,3.63,2,13.15,13.15,0,0,0,4.27.71,9.51,9.51,0,0,0,5.2-1.39,17,17,0,0,0,4.06-3.67l4.84,3.71q-5.34,6.9-14.95,6.9a18.63,18.63,0,0,1-7.23-1.35,15.75,15.75,0,0,1-5.48-3.74,16.68,16.68,0,0,1-3.45-5.62,19.82,19.82,0,0,1-1.21-7,18.38,18.38,0,0,1,1.32-7,17.48,17.48,0,0,1,3.63-5.63,16.53,16.53,0,0,1,5.51-3.73,17.8,17.8,0,0,1,7-1.36,16.7,16.7,0,0,1,7.58,1.57,15,15,0,0,1,5.09,4.09,16.16,16.16,0,0,1,2.88,5.7,23.83,23.83,0,0,1,.89,6.44v2.28Zm20.22-5.13a13.66,13.66,0,0,0-.68-3.91,8.65,8.65,0,0,0-1.81-3.1,8.27,8.27,0,0,0-3-2.06,11,11,0,0,0-4.23-.75,10.47,10.47,0,0,0-7.62,3.2,10.81,10.81,0,0,0-2.1,3.17,8.66,8.66,0,0,0-.75,3.45Z" transform="translate(0.77 0)"/><path class="cls-1" d="M3380.34,1336.1h6.4v53.81h-6.4Z" transform="translate(0.77 0)"/><path class="cls-1" d="M3395.42,1360.3a17.83,17.83,0,0,1,6.26-3.74,21.41,21.41,0,0,1,7.12-1.25,19.41,19.41,0,0,1,6.37.93,12.51,12.51,0,0,1,4.38,2.49,9.82,9.82,0,0,1,2.52,3.59,11.19,11.19,0,0,1,.82,4.24v17.22c0,1.19,0,2.28.07,3.28s.12,1.94.22,2.85h-5.7q-.21-2.57-.21-5.13h-.14a12.32,12.32,0,0,1-5.06,4.63,15.93,15.93,0,0,1-6.76,1.35,15.36,15.36,0,0,1-4.48-.64,11,11,0,0,1-3.74-1.92,9.23,9.23,0,0,1-2.53-3.17,9.94,9.94,0,0,1-.92-4.38,9.67,9.67,0,0,1,1.46-5.48,11,11,0,0,1,4-3.59,19.13,19.13,0,0,1,5.91-2,40.31,40.31,0,0,1,7.22-.61h4.7v-1.42a6.91,6.91,0,0,0-.5-2.57,7,7,0,0,0-1.49-2.31,7.3,7.3,0,0,0-2.49-1.64,9.54,9.54,0,0,0-3.56-.6,13.56,13.56,0,0,0-3.24.35,15.3,15.3,0,0,0-2.53.89,11.64,11.64,0,0,0-2.06,1.25c-.62.47-1.21.93-1.78,1.35Zm18.08,13.38a43.94,43.94,0,0,0-4.67.25,17.71,17.71,0,0,0-4.34,1,8.39,8.39,0,0,0-3.2,2,4.5,4.5,0,0,0-1.25,3.27,4.65,4.65,0,0,0,2,4.2,9.54,9.54,0,0,0,5.3,1.28,10.36,10.36,0,0,0,4.49-.88,8.55,8.55,0,0,0,3-2.32,8.9,8.9,0,0,0,1.63-3.16,12.32,12.32,0,0,0,.5-3.46v-2.13Z" transform="translate(0.77 0)"/><path class="cls-1" d="M3436.14,1375.39a8.46,8.46,0,0,0,1,4,10,10,0,0,0,2.52,3.09,11.84,11.84,0,0,0,3.63,2,13.16,13.16,0,0,0,4.28.71,9.5,9.5,0,0,0,5.19-1.39,17,17,0,0,0,4.06-3.67l4.84,3.71q-5.34,6.9-14.95,6.9a18.58,18.58,0,0,1-7.22-1.35,15.66,15.66,0,0,1-5.48-3.74,16.54,16.54,0,0,1-3.46-5.62,20,20,0,0,1-1.21-7,18.38,18.38,0,0,1,1.32-7,17.48,17.48,0,0,1,3.63-5.63,16.47,16.47,0,0,1,5.52-3.73,17.75,17.75,0,0,1,7-1.36,16.7,16.7,0,0,1,7.58,1.57,14.94,14.94,0,0,1,5.09,4.09,16.16,16.16,0,0,1,2.88,5.7,23.44,23.44,0,0,1,.89,6.44v2.28Zm20.21-5.13a13.66,13.66,0,0,0-.67-3.91,8.67,8.67,0,0,0-1.82-3.1,8.32,8.32,0,0,0-3-2.06,11.07,11.07,0,0,0-4.24-.75,10.47,10.47,0,0,0-7.62,3.2,10.81,10.81,0,0,0-2.1,3.17,8.82,8.82,0,0,0-.74,3.45Z" transform="translate(0.77 0)"/><path class="cls-1" d="M3469.9,1356.17h6.41v5.19h.14a9.16,9.16,0,0,1,1.71-2.45,11.38,11.38,0,0,1,2.38-1.89,12.72,12.72,0,0,1,2.89-1.24,10.9,10.9,0,0,1,3.13-.47,9.16,9.16,0,0,1,2.85.43l-.29,6.9c-.52-.14-1-.25-1.56-.35a8.41,8.41,0,0,0-1.57-.14q-4.69,0-7.19,2.63c-1.66,1.76-2.49,4.48-2.49,8.19v16.94h-6.41Z" transform="translate(0.77 0)"/><path class="cls-1" d="M3552.75,1350.4a14.05,14.05,0,0,0-5.41-4.27,16.17,16.17,0,0,0-6.76-1.49,18.07,18.07,0,0,0-7.72,1.6,17.88,17.88,0,0,0-5.91,4.38,19.89,19.89,0,0,0-3.81,6.51,23.39,23.39,0,0,0-1.35,8,22.2,22.2,0,0,0,1.28,7.54,19,19,0,0,0,3.7,6.26,17.49,17.49,0,0,0,5.91,4.28,19.17,19.17,0,0,0,7.9,1.56,15.68,15.68,0,0,0,7.62-1.78,16.36,16.36,0,0,0,5.55-5l5.76,4.34a22.79,22.79,0,0,1-2,2.24,19.52,19.52,0,0,1-3.77,2.92,26.66,26.66,0,0,1-5.66,2.56,24.08,24.08,0,0,1-7.65,1.11,24.8,24.8,0,0,1-10.78-2.28,26,26,0,0,1-8.19-6,26.65,26.65,0,0,1-6.94-17.79,29.6,29.6,0,0,1,1.92-10.79,25.48,25.48,0,0,1,5.38-8.54,24.08,24.08,0,0,1,8.29-5.59,27.9,27.9,0,0,1,10.68-2,26.12,26.12,0,0,1,9.78,1.92,18.27,18.27,0,0,1,7.87,5.91Z" transform="translate(0.77 0)"/><path class="cls-1" d="M3569.71,1375.39a8.46,8.46,0,0,0,1,4,9.85,9.85,0,0,0,2.53,3.09,11.61,11.61,0,0,0,3.63,2,13.06,13.06,0,0,0,4.27.71,9.5,9.5,0,0,0,5.19-1.39,17,17,0,0,0,4.06-3.67l4.84,3.71q-5.34,6.9-15,6.9a18.58,18.58,0,0,1-7.22-1.35,15.66,15.66,0,0,1-5.48-3.74,16.54,16.54,0,0,1-3.46-5.62,20,20,0,0,1-1.21-7,18.38,18.38,0,0,1,1.32-7,17.48,17.48,0,0,1,3.63-5.63,16.47,16.47,0,0,1,5.52-3.73,17.75,17.75,0,0,1,7-1.36,16.7,16.7,0,0,1,7.58,1.57A14.94,14.94,0,0,1,3593,1361a16.16,16.16,0,0,1,2.88,5.7,23.44,23.44,0,0,1,.89,6.44v2.28Zm20.21-5.13a13.32,13.32,0,0,0-.68-3.91,8.51,8.51,0,0,0-1.81-3.1,8.32,8.32,0,0,0-3-2.06,11.11,11.11,0,0,0-4.24-.75,10.47,10.47,0,0,0-7.62,3.2,10.81,10.81,0,0,0-2.1,3.17,8.82,8.82,0,0,0-.74,3.45Z" transform="translate(0.77 0)"/><path class="cls-1" d="M3603.47,1356.17h6.41v5.19h.14a9.45,9.45,0,0,1,4.2-4.37,13.84,13.84,0,0,1,6.91-1.68,14.62,14.62,0,0,1,4.66.75,10.57,10.57,0,0,1,3.91,2.31,11.1,11.1,0,0,1,2.67,4,15.24,15.24,0,0,1,1,5.8v21.71H3627V1370a11.15,11.15,0,0,0-.64-4,7.41,7.41,0,0,0-1.71-2.71,6.28,6.28,0,0,0-2.45-1.49,9.07,9.07,0,0,0-2.89-.47,10.65,10.65,0,0,0-3.7.64,7.92,7.92,0,0,0-3,2,9.58,9.58,0,0,0-2,3.53,16.11,16.11,0,0,0-.71,5v17.37h-6.41Z" transform="translate(0.77 0)"/><path class="cls-1" d="M3660.22,1361.72H3651V1377c0,1,0,1.89.07,2.81a7.45,7.45,0,0,0,.54,2.5,4,4,0,0,0,1.42,1.77,4.8,4.8,0,0,0,2.81.68,13.77,13.77,0,0,0,2.35-.21,6.77,6.77,0,0,0,2.21-.79v5.84a8.42,8.42,0,0,1-3,.89,21.53,21.53,0,0,1-2.81.25,12.84,12.84,0,0,1-5.73-1,7.07,7.07,0,0,1-3-2.67,8.64,8.64,0,0,1-1.14-3.67c-.12-1.35-.18-2.71-.18-4.09v-17.58h-7.4v-5.55h7.4v-9.47H3651v9.47h9.18Z" transform="translate(0.77 0)"/><path class="cls-1" d="M3670.81,1375.39a8.46,8.46,0,0,0,1,4,10,10,0,0,0,2.53,3.09,11.61,11.61,0,0,0,3.63,2,13.15,13.15,0,0,0,4.27.71,9.53,9.53,0,0,0,5.2-1.39,16.74,16.74,0,0,0,4-3.67l4.85,3.71q-5.34,6.9-15,6.9a18.63,18.63,0,0,1-7.23-1.35,15.75,15.75,0,0,1-5.48-3.74,16.68,16.68,0,0,1-3.45-5.62,19.82,19.82,0,0,1-1.21-7,18.38,18.38,0,0,1,1.32-7,17.15,17.15,0,0,1,3.63-5.63,16.53,16.53,0,0,1,5.51-3.73,17.8,17.8,0,0,1,7-1.36,16.73,16.73,0,0,1,7.58,1.57,15,15,0,0,1,5.09,4.09,16.16,16.16,0,0,1,2.88,5.7,23.83,23.83,0,0,1,.89,6.44v2.28Zm20.22-5.13a13.66,13.66,0,0,0-.68-3.91,8.65,8.65,0,0,0-1.81-3.1,8.27,8.27,0,0,0-3-2.06,11,11,0,0,0-4.23-.75,10.47,10.47,0,0,0-7.62,3.2,10.81,10.81,0,0,0-2.1,3.17,8.66,8.66,0,0,0-.75,3.45Z" transform="translate(0.77 0)"/><path class="cls-1" d="M3704.58,1356.17H3711v5.19h.14a8.94,8.94,0,0,1,1.71-2.45,11.13,11.13,0,0,1,2.38-1.89,12.84,12.84,0,0,1,2.88-1.24,11,11,0,0,1,3.14-.47,9.05,9.05,0,0,1,2.84.43l-.28,6.9c-.52-.14-1.05-.25-1.57-.35a8.23,8.23,0,0,0-1.56-.14c-3.14,0-5.53.88-7.19,2.63s-2.49,4.48-2.49,8.19v16.94h-6.41Z" transform="translate(0.77 0)"/><path class="cls-1" d="M3753.19,1361.72h-7.26v-5.55h7.26v-7.55q0-6.75,2.6-10.07t8.93-3.31c.71,0,1.46,0,2.25.07a13,13,0,0,1,2.52.43l-.71,5.69a9.35,9.35,0,0,0-1.78-.49,10.75,10.75,0,0,0-1.85-.15,6.35,6.35,0,0,0-2.85.54,3.92,3.92,0,0,0-1.67,1.53,6.08,6.08,0,0,0-.78,2.38,24.91,24.91,0,0,0-.18,3.17v7.76h7.62v5.55h-7.69v28.19h-6.41Z" transform="translate(0.77 0)"/><path class="cls-1" d="M3770.18,1373a17.3,17.3,0,0,1,1.39-6.91,18,18,0,0,1,33.1,0,17.3,17.3,0,0,1,1.39,6.91,17.53,17.53,0,0,1-5.2,12.56,18.24,18.24,0,0,1-25.48,0,17.53,17.53,0,0,1-5.2-12.56Zm6.84,0a13.89,13.89,0,0,0,.78,4.73,10.58,10.58,0,0,0,2.2,3.7,10.25,10.25,0,0,0,3.49,2.42,12.49,12.49,0,0,0,9.26,0,10.21,10.21,0,0,0,3.48-2.42,10.6,10.6,0,0,0,2.21-3.7,14.76,14.76,0,0,0,0-9.47,10.7,10.7,0,0,0-2.21-3.7,10.35,10.35,0,0,0-3.48-2.42,12.49,12.49,0,0,0-9.26,0,10.39,10.39,0,0,0-3.49,2.42,10.68,10.68,0,0,0-2.2,3.7A14,14,0,0,0,3777,1373Z" transform="translate(0.77 0)"/><path class="cls-1" d="M3812.9,1356.17h6.4v5.19h.14a9.16,9.16,0,0,1,1.71-2.45,11.18,11.18,0,0,1,2.39-1.89,12.46,12.46,0,0,1,2.88-1.24,11,11,0,0,1,3.13-.47,9.16,9.16,0,0,1,2.85.43l-.29,6.9c-.52-.14-1-.25-1.56-.35a8.41,8.41,0,0,0-1.57-.14q-4.7,0-7.19,2.63c-1.66,1.76-2.49,4.48-2.49,8.19v16.94h-6.4Z" transform="translate(0.77 0)"/><path class="cls-1" d="M3883.79,1391.19a27.22,27.22,0,0,1-10.61-2,24.65,24.65,0,0,1-8.29-5.59,25.71,25.71,0,0,1-5.41-8.4,28.89,28.89,0,0,1,0-20.92,25.71,25.71,0,0,1,5.41-8.4,24.51,24.51,0,0,1,8.29-5.59,28.72,28.72,0,0,1,21.21,0,24.51,24.51,0,0,1,8.29,5.59,25.55,25.55,0,0,1,5.41,8.4,28.89,28.89,0,0,1,0,20.92,25.55,25.55,0,0,1-5.41,8.4,24.65,24.65,0,0,1-8.29,5.59A27.21,27.21,0,0,1,3883.79,1391.19Zm0-6.41a18.3,18.3,0,0,0,13.81-5.91,18.87,18.87,0,0,0,3.84-6.37,23.15,23.15,0,0,0,0-15.58,19,19,0,0,0-3.84-6.38,18.78,18.78,0,0,0-6-4.3,18.9,18.9,0,0,0-21.64,4.3,19.2,19.2,0,0,0-3.85,6.38,23.15,23.15,0,0,0,0,15.58,19.06,19.06,0,0,0,3.85,6.37,18.3,18.3,0,0,0,13.81,5.91Z" transform="translate(0.77 0)"/><path class="cls-1" d="M3917.52,1356.17h6.4V1361h.14a12.29,12.29,0,0,1,5.09-4.2,15.69,15.69,0,0,1,6.66-1.5,17.88,17.88,0,0,1,7.08,1.36,15.64,15.64,0,0,1,5.41,3.77,16.89,16.89,0,0,1,3.45,5.66A19.59,19.59,0,0,1,3953,1373a19.82,19.82,0,0,1-1.21,7,16.52,16.52,0,0,1-3.45,5.62,15.84,15.84,0,0,1-5.41,3.74,17.87,17.87,0,0,1-7.08,1.35,15.62,15.62,0,0,1-6.83-1.53,11.71,11.71,0,0,1-4.92-4.16h-.14V1410h-6.4Zm17.51,5.12a11.65,11.65,0,0,0-4.63.89,10.29,10.29,0,0,0-3.49,2.42,10.68,10.68,0,0,0-2.2,3.7,14.59,14.59,0,0,0,0,9.47,10.58,10.58,0,0,0,2.2,3.7,10.16,10.16,0,0,0,3.49,2.42,12.46,12.46,0,0,0,9.25,0,10.16,10.16,0,0,0,3.49-2.42,10.76,10.76,0,0,0,2.21-3.7,14.76,14.76,0,0,0,0-9.47,10.85,10.85,0,0,0-2.21-3.7,10.29,10.29,0,0,0-3.49-2.42A11.61,11.61,0,0,0,3935,1361.29Z" transform="translate(0.77 0)"/><path class="cls-1" d="M3964.71,1375.39a8.46,8.46,0,0,0,1,4,10,10,0,0,0,2.52,3.09,11.84,11.84,0,0,0,3.63,2,13.15,13.15,0,0,0,4.27.71,9.51,9.51,0,0,0,5.2-1.39,17,17,0,0,0,4.06-3.67l4.84,3.71q-5.34,6.9-15,6.9a18.54,18.54,0,0,1-7.22-1.35,15.66,15.66,0,0,1-5.48-3.74,16.54,16.54,0,0,1-3.46-5.62,20,20,0,0,1-1.21-7,18.38,18.38,0,0,1,1.32-7,17.48,17.48,0,0,1,3.63-5.63,16.47,16.47,0,0,1,5.52-3.73,17.75,17.75,0,0,1,7-1.36,16.7,16.7,0,0,1,7.58,1.57A14.94,14.94,0,0,1,3988,1361a16.16,16.16,0,0,1,2.88,5.7,23.44,23.44,0,0,1,.89,6.44v2.28Zm20.21-5.13a13.32,13.32,0,0,0-.68-3.91,8.51,8.51,0,0,0-1.81-3.1,8.27,8.27,0,0,0-3-2.06,11,11,0,0,0-4.23-.75,10.47,10.47,0,0,0-7.62,3.2,10.81,10.81,0,0,0-2.1,3.17,8.82,8.82,0,0,0-.74,3.45Z" transform="translate(0.77 0)"/><path class="cls-1" d="M3998.47,1356.17h6.41v5.19h.14a9.45,9.45,0,0,1,4.2-4.37,13.83,13.83,0,0,1,6.9-1.68,14.64,14.64,0,0,1,4.67.75,10.57,10.57,0,0,1,3.91,2.31,11.1,11.1,0,0,1,2.67,4,15.43,15.43,0,0,1,1,5.8v21.71H4022V1370a11.15,11.15,0,0,0-.64-4,7.41,7.41,0,0,0-1.71-2.71,6.28,6.28,0,0,0-2.45-1.49,9.07,9.07,0,0,0-2.89-.47,10.61,10.61,0,0,0-3.7.64,7.84,7.84,0,0,0-3,2,9.58,9.58,0,0,0-2,3.53,16.11,16.11,0,0,0-.71,5v17.37h-6.41Z" transform="translate(0.77 0)"/><path class="cls-1" d="M4061,1379.37a11.15,11.15,0,0,0,4.73,4.09,14.11,14.11,0,0,0,5.94,1.32,12.33,12.33,0,0,0,3.49-.53,10.66,10.66,0,0,0,3.24-1.6,8.72,8.72,0,0,0,2.38-2.64,7,7,0,0,0,.93-3.63,5.46,5.46,0,0,0-1.85-4.45,16.2,16.2,0,0,0-4.59-2.56q-2.74-1-6-2a24.29,24.29,0,0,1-6-2.67,14.57,14.57,0,0,1-4.59-4.59,14.25,14.25,0,0,1-1.85-7.8,13.05,13.05,0,0,1,1-4.69,13.2,13.2,0,0,1,3-4.56,16.77,16.77,0,0,1,5.31-3.45,19.62,19.62,0,0,1,7.79-1.39,27.15,27.15,0,0,1,7.9,1.14,13.54,13.54,0,0,1,6.62,4.63l-5.55,5a9.23,9.23,0,0,0-3.63-3.2,11.47,11.47,0,0,0-5.34-1.21,13.08,13.08,0,0,0-4.73.74,8.45,8.45,0,0,0-3,1.93,6.76,6.76,0,0,0-1.6,2.52,7.72,7.72,0,0,0-.46,2.49,6.34,6.34,0,0,0,1.85,4.92,14.41,14.41,0,0,0,4.59,2.77,56.13,56.13,0,0,0,6,1.92,25.68,25.68,0,0,1,6,2.39,13.94,13.94,0,0,1,4.59,4.13,12.15,12.15,0,0,1,1.85,7.15,15,15,0,0,1-1.39,6.55,14.61,14.61,0,0,1-3.74,4.91,16.41,16.41,0,0,1-5.55,3.06,21.48,21.48,0,0,1-6.83,1.07,24.79,24.79,0,0,1-9.18-1.71,15.13,15.13,0,0,1-6.91-5.27Z" transform="translate(0.77 0)"/><path class="cls-1" d="M4094.35,1373a17.13,17.13,0,0,1,1.39-6.91,18,18,0,0,1,33.09,0,17.13,17.13,0,0,1,1.39,6.91,17.58,17.58,0,0,1-5.19,12.56,18.1,18.1,0,0,1-5.7,3.77,18.55,18.55,0,0,1-14.09,0,18.1,18.1,0,0,1-5.7-3.77,17.58,17.58,0,0,1-5.19-12.56Zm6.83,0a13.89,13.89,0,0,0,.78,4.73,10.76,10.76,0,0,0,2.21,3.7,10.16,10.16,0,0,0,3.49,2.42,12.46,12.46,0,0,0,9.25,0,10.16,10.16,0,0,0,3.49-2.42,10.76,10.76,0,0,0,2.21-3.7,14.76,14.76,0,0,0,0-9.47,10.85,10.85,0,0,0-2.21-3.7,10.29,10.29,0,0,0-3.49-2.42,12.46,12.46,0,0,0-9.25,0,10.29,10.29,0,0,0-3.49,2.42,10.85,10.85,0,0,0-2.21,3.7A14,14,0,0,0,4101.18,1373Z" transform="translate(0.77 0)"/><path class="cls-1" d="M4166.69,1389.91h-6.4v-5.2h-.15a9.42,9.42,0,0,1-4.2,4.38,13.93,13.93,0,0,1-6.9,1.67,14.51,14.51,0,0,1-4.7-.75,10.69,10.69,0,0,1-3.88-2.31,11.23,11.23,0,0,1-2.67-4,15.48,15.48,0,0,1-1-5.8v-21.71h6.4v19.93a11.45,11.45,0,0,0,.64,4,7.37,7.37,0,0,0,1.71,2.7,6.39,6.39,0,0,0,2.46,1.5,9,9,0,0,0,2.88.46,10.38,10.38,0,0,0,3.7-.64,7.66,7.66,0,0,0,3-2,9.4,9.4,0,0,0,2-3.52,15.85,15.85,0,0,0,.72-5v-17.37h6.4Z" transform="translate(0.77 0)"/><path class="cls-1" d="M4175.31,1356.17h6.41v5.19h.14a9.16,9.16,0,0,1,1.71-2.45A11.13,11.13,0,0,1,4186,1357a12.72,12.72,0,0,1,2.89-1.24,10.9,10.9,0,0,1,3.13-.47,9.05,9.05,0,0,1,2.84.43l-.28,6.9c-.52-.14-1.05-.25-1.57-.35a8.23,8.23,0,0,0-1.56-.14q-4.69,0-7.19,2.63c-1.66,1.76-2.49,4.48-2.49,8.19v16.94h-6.41Z" transform="translate(0.77 0)"/><path class="cls-1" d="M4223.63,1365.14a13.69,13.69,0,0,0-3.74-2.82,10.5,10.5,0,0,0-4.66-1,10.28,10.28,0,0,0-4.59,1,9.41,9.41,0,0,0-3.28,2.64,11.68,11.68,0,0,0-2,3.84,15.18,15.18,0,0,0-.68,4.52,12.45,12.45,0,0,0,.79,4.45,11.22,11.22,0,0,0,2.2,3.67,10.16,10.16,0,0,0,3.42,2.45,10.92,10.92,0,0,0,4.48.89,10.25,10.25,0,0,0,4.63-1,11.9,11.9,0,0,0,3.56-2.81l4.55,4.55a14.35,14.35,0,0,1-5.8,4,20.14,20.14,0,0,1-7,1.21,19.35,19.35,0,0,1-7.15-1.28,16.55,16.55,0,0,1-5.59-3.6,16,16,0,0,1-3.63-5.55,19.35,19.35,0,0,1-1.28-7.15,19.64,19.64,0,0,1,1.28-7.19,16.1,16.1,0,0,1,9.15-9.29,19,19,0,0,1,7.22-1.32,19.26,19.26,0,0,1,7.08,1.32,15.68,15.68,0,0,1,5.88,4Z" transform="translate(0.77 0)"/><path class="cls-1" d="M4237.3,1375.39a8.46,8.46,0,0,0,1,4,9.85,9.85,0,0,0,2.53,3.09,11.61,11.61,0,0,0,3.63,2,13.1,13.1,0,0,0,4.27.71,9.5,9.5,0,0,0,5.19-1.39,17,17,0,0,0,4.06-3.67l4.84,3.71q-5.34,6.9-14.95,6.9a18.58,18.58,0,0,1-7.22-1.35,15.66,15.66,0,0,1-5.48-3.74,16.37,16.37,0,0,1-3.45-5.62,19.82,19.82,0,0,1-1.21-7,18.37,18.37,0,0,1,1.31-7,17.48,17.48,0,0,1,3.63-5.63,16.47,16.47,0,0,1,5.52-3.73,17.75,17.75,0,0,1,7-1.36,16.7,16.7,0,0,1,7.58,1.57,14.94,14.94,0,0,1,5.09,4.09,16.34,16.34,0,0,1,2.89,5.7,23.83,23.83,0,0,1,.89,6.44v2.28Zm20.21-5.13a13.66,13.66,0,0,0-.67-3.91,8.67,8.67,0,0,0-1.82-3.1,8.23,8.23,0,0,0-3-2.06,11.07,11.07,0,0,0-4.24-.75,10.47,10.47,0,0,0-9.71,6.37,8.66,8.66,0,0,0-.75,3.45Z" transform="translate(0.77 0)"/><path class="cls-3" d="M1780.51.5c-119.92,0-217.13,97.21-217.13,217.13s97.21,217.13,217.13,217.13,217.13-97.21,217.13-217.13S1900.43.5,1780.51.5Zm96.26,309.9a18,18,0,0,1-5,26,18.2,18.2,0,0,1-24-4.93l-52-69.87a17.93,17.93,0,0,1,4.53-26.18,18.35,18.35,0,0,1,5.57-2.33,51.18,51.18,0,0,0,38.76-51.51c-.89-27.29-24.74-49.59-52.05-49.59h-60.47a5.78,5.78,0,0,0-5.78,5.78V321.19a17.94,17.94,0,0,1-19.57,17.86,18.18,18.18,0,0,1-16.3-18.26V114.07a17.93,17.93,0,0,1,17.93-17.93h83.94c47.29,0,86.76,37.27,88.16,84.54a87,87,0,0,1-42.51,77.6h0Z" transform="translate(0.77 0)"/><path class="cls-3" d="M1800.54,686.78c-1.76-59.32-51.28-106.08-110.62-106.08H1584.61a22.51,22.51,0,0,0-22.5,22.5V862.56c0,11.73,8.78,21.89,20.46,22.92a22.5,22.5,0,0,0,24.54-22.41V633a7.26,7.26,0,0,1,7.26-7.26h75.88c34.26,0,64.18,28,65.3,62.22a64.23,64.23,0,0,1-48.64,64.63,22.5,22.5,0,0,0-12.67,35.77L1759.43,876c7,9.41,20.1,12.33,30.09,6.18a22.5,22.5,0,0,0,6.32-32.63l-48.64-65.4h0A109.17,109.17,0,0,0,1800.54,686.78Z" transform="translate(0.77 0)"/><path class="cls-3" d="M1978.8,625.7a106.74,106.74,0,0,1,76,31.47,22.5,22.5,0,1,0,31.82-31.82A151.44,151.44,0,0,0,1978.8,580.7c-84,0-152.43,68.39-152.43,152.44s68.38,152.43,152.43,152.43a151.43,151.43,0,0,0,107.79-44.64,22.5,22.5,0,1,0-31.82-31.82,107.44,107.44,0,1,1-76-183.41Z" transform="translate(0.77 0)"/><path class="cls-3" d="M2261.39,580.7c-84,0-152.43,68.39-152.43,152.44s68.38,152.43,152.43,152.43,152.44-68.38,152.44-152.43S2345.45,580.7,2261.39,580.7Zm0,259.87a107.44,107.44,0,1,1,107.44-107.43A107.55,107.55,0,0,1,2261.39,840.57Z" transform="translate(0.77 0)"/><path class="cls-3" d="M2663.22,760.42h0a72,72,0,0,0-22.17-24.28,113.81,113.81,0,0,0-30.27-14.37c-10.71-3.35-22-6.29-33.44-8.75-11.31-2.42-22.49-4.73-33.23-6.87a177.91,177.91,0,0,1-28.4-8,68,68,0,0,1-20.31-11.64c-4.76-4.1-7.73-9.53-9.07-16.61a33.67,33.67,0,0,1,1-17.15,39.19,39.19,0,0,1,10.15-16c5-5,12-9.13,20.86-12.37,9-3.32,20.47-5,34-5a105.12,105.12,0,0,1,25.79,3.17,66.89,66.89,0,0,1,21.39,9.44,44.14,44.14,0,0,1,14,15.69c3.4,6.36,5.12,14.12,5.12,23.08s6,22,22.38,22c8.17,0,13.11-3.39,15.82-6.23,5.81-6.12,5.89-14.38,5.85-16a88.1,88.1,0,0,0-7-34.7,81.28,81.28,0,0,0-21.12-29c-9.24-8.18-20.92-14.69-34.72-19.34-13.6-4.58-29.61-6.9-47.58-6.9-17.63,0-33.52,2.18-47.21,6.47-13.85,4.35-25.62,10.33-35,17.78a77.84,77.84,0,0,0-21.69,26.41,70,70,0,0,0-7.39,31c0,14.94,3.11,27.59,9.24,37.61a75.25,75.25,0,0,0,23.45,24.12,120.8,120.8,0,0,0,31.7,14.31c11.27,3.35,23,6.29,34.85,8.73,11.48,2.37,22.92,4.85,34,7.38a128.63,128.63,0,0,1,27.73,9.44,52.42,52.42,0,0,1,18.06,13.91c4.15,5.12,6.16,11.86,6.16,20.61a46,46,0,0,1-3.75,18.37,40.55,40.55,0,0,1-11.42,15c-5.3,4.46-12.42,8.09-21.14,10.78-9,2.78-19.95,4.19-32.56,4.19a132.45,132.45,0,0,1-30.55-3.38,71,71,0,0,1-24-10.36,55.17,55.17,0,0,1-16.49-18c-4.25-7.32-6.93-16.48-8-27.14,0-2.44-.56-10.86-6.53-17.12-4-4.17-9.5-6.44-16-6.55-7.88-.11-12.81,3.18-15.54,6-6.49,6.68-6.53,16.31-6.48,18.14,0,16.13,3.08,30.44,9.1,42.55a86.44,86.44,0,0,0,25.41,30.67,109.84,109.84,0,0,0,37.86,18.14,175.92,175.92,0,0,0,46.06,5.8c36.77,0,65.93-7.56,86.7-22.47,21.61-15.52,32.58-37.63,32.58-65.7C2671.68,782.84,2668.83,770.4,2663.22,760.42Z" transform="translate(0.77 0)"/><path class="cls-3" d="M1941.12,1715.72c-1.75-59.31-51.27-106.07-110.61-106.07H1725.2a22.5,22.5,0,0,0-22.5,22.5v259.36c0,11.73,8.77,21.89,20.46,22.92A22.5,22.5,0,0,0,1747.7,1892V1661.9a7.26,7.26,0,0,1,7.25-7.25h75.88c34.26,0,64.18,28,65.31,62.22a64.24,64.24,0,0,1-48.64,64.63,22.49,22.49,0,0,0-12.67,35.77l65.18,87.65c7,9.42,20.1,12.33,30.09,6.19a22.5,22.5,0,0,0,6.33-32.63l-48.64-65.4h0A109.16,109.16,0,0,0,1941.12,1715.72Z" transform="translate(0.77 0)"/><path class="cls-3" d="M2119.39,1654.65a106.73,106.73,0,0,1,76,31.47,22.5,22.5,0,1,0,31.82-31.82,151.44,151.44,0,0,0-107.78-44.65c-84.06,0-152.44,68.38-152.44,152.43s68.38,152.44,152.44,152.44a151.44,151.44,0,0,0,107.78-44.65,22.5,22.5,0,1,0-31.82-31.82,107.43,107.43,0,1,1-76-183.4Z" transform="translate(0.77 0)"/><path class="cls-3" d="M2402,1609.65c-84.05,0-152.43,68.38-152.43,152.43s68.38,152.44,152.43,152.44,152.43-68.38,152.43-152.44S2486,1609.65,2402,1609.65Zm0,259.87a107.44,107.44,0,1,1,107.43-107.44A107.56,107.56,0,0,1,2402,1869.52Z" transform="translate(0.77 0)"/><path class="cls-3" d="M2803.81,1789.37h0a71.84,71.84,0,0,0-22.18-24.27,114,114,0,0,0-30.27-14.38c-10.7-3.34-22-6.28-33.43-8.75-11.31-2.41-22.49-4.72-33.23-6.87a178.05,178.05,0,0,1-28.41-8,68.07,68.07,0,0,1-20.3-11.65c-4.76-4.09-7.73-9.52-9.08-16.6a33.68,33.68,0,0,1,1-17.15,39.26,39.26,0,0,1,10.14-16c5-5,12-9.12,20.86-12.37,9-3.32,20.48-5,34-5a105.12,105.12,0,0,1,25.79,3.17,66.62,66.62,0,0,1,21.38,9.44,44.14,44.14,0,0,1,14,15.69c3.41,6.35,5.13,14.12,5.13,23.08s6,22,22.38,22c8.17,0,13.11-3.39,15.81-6.24,5.82-6.11,5.9-14.37,5.86-15.94a88.24,88.24,0,0,0-7-34.7,81.28,81.28,0,0,0-21.12-29c-9.24-8.18-20.92-14.69-34.72-19.34-13.6-4.58-29.61-6.9-47.58-6.9-17.64,0-33.52,2.18-47.21,6.47-13.86,4.34-25.62,10.32-35,17.78a77.74,77.74,0,0,0-21.69,26.41,70,70,0,0,0-7.39,31c0,14.93,3.11,27.58,9.23,37.6a75.39,75.39,0,0,0,23.45,24.13,121.2,121.2,0,0,0,31.71,14.31c11.27,3.35,23,6.28,34.85,8.73,11.48,2.37,22.92,4.85,34,7.37a130.11,130.11,0,0,1,27.73,9.44,52.66,52.66,0,0,1,18.06,13.92c4.14,5.12,6.16,11.86,6.16,20.61a46,46,0,0,1-3.75,18.37,40.55,40.55,0,0,1-11.42,15c-5.31,4.46-12.42,8.08-21.15,10.78-9,2.78-19.95,4.19-32.55,4.19a131.92,131.92,0,0,1-30.56-3.39,71,71,0,0,1-24-10.35,55.19,55.19,0,0,1-16.5-18c-4.24-7.32-6.92-16.49-7.94-27.15,0-2.43-.56-10.86-6.54-17.12-4-4.17-9.49-6.43-15.94-6.54-7.89-.11-12.81,3.17-15.55,6-6.48,6.68-6.53,16.31-6.47,18.15,0,16.12,3.07,30.44,9.09,42.54a86.66,86.66,0,0,0,25.41,30.68,109.81,109.81,0,0,0,37.87,18.14,175.86,175.86,0,0,0,46.06,5.8c36.76,0,65.93-7.56,86.69-22.48,21.62-15.52,32.58-37.62,32.58-65.69C2812.26,1811.78,2809.42,1799.34,2803.81,1789.37Z" transform="translate(0.77 0)"/><path class="cls-2" d="M1589,1510.82H2768.83a167,167,0,0,1,167,167v192.3a167,167,0,0,1-167,167H1756a167,167,0,0,1-167-167V1510.82a0,0,0,0,1,0,0Z"/><path class="cls-3" d="M2763.88,2045.28H1751.09a187.55,187.55,0,0,1-187-187V1498.89a20,20,0,0,1,20-20H2763.88a187.55,187.55,0,0,1,187,187v192.31a187.55,187.55,0,0,1-187,187Zm-1152.6-526.39a7.24,7.24,0,0,0-7.24,7.24v332.11a147.53,147.53,0,0,0,147,147H2763.88a147.53,147.53,0,0,0,147-147V1665.93a147.53,147.53,0,0,0-147-147Z" transform="translate(0.77 0)"/><path class="cls-3" d="M1801.83,1088c-1.75-59.31-51.14-106.07-110.32-106.07h-105a22.48,22.48,0,0,0-22.44,22.5v259.36c0,11.73,8.75,21.89,20.4,22.92a22.47,22.47,0,0,0,24.48-22.41V1034.22a7.25,7.25,0,0,1,7.24-7.26h75.67c34.17,0,64,28,65.13,62.22a64.2,64.2,0,0,1-48.51,64.63,22.31,22.31,0,0,0-7,2.92,22.52,22.52,0,0,0-5.67,32.85l65,87.66c7,9.41,20.05,12.32,30,6.18a22.55,22.55,0,0,0,6.31-32.63l-48.51-65.4h0A109.24,109.24,0,0,0,1801.83,1088Z" transform="translate(0.77 0)"/><path class="cls-3" d="M1979.62,1027a106.29,106.29,0,0,1,75.76,31.47,22.47,22.47,0,0,0,31.74-31.82A150.83,150.83,0,0,0,1979.62,982c-83.83,0-152,68.38-152,152.44s68.2,152.43,152,152.43a150.83,150.83,0,0,0,107.5-44.65,22.47,22.47,0,0,0-31.74-31.82,106.29,106.29,0,0,1-75.76,31.47c-59.08,0-107.15-48.2-107.15-107.43S1920.54,1027,1979.62,1027Z" transform="translate(0.77 0)"/><path class="cls-3" d="M2261.46,982c-83.83,0-152,68.38-152,152.44s68.2,152.43,152,152.43,152-68.38,152-152.43S2345.29,982,2261.46,982Zm0,259.87c-59.08,0-107.15-48.2-107.15-107.43S2202.38,1027,2261.46,1027s107.15,48.2,107.15,107.44S2320.54,1241.83,2261.46,1241.83Z" transform="translate(0.77 0)"/><path class="cls-3" d="M2662.22,1161.68h0a71.81,71.81,0,0,0-22.12-24.28,113.54,113.54,0,0,0-30.18-14.38c-10.68-3.34-21.9-6.28-33.35-8.75-11.28-2.41-22.43-4.72-33.14-6.86a177,177,0,0,1-28.33-8,67.62,67.62,0,0,1-20.26-11.65c-4.74-4.09-7.7-9.52-9-16.6a33.67,33.67,0,0,1,1-17.15,39.21,39.21,0,0,1,10.12-16c5-5,12-9.12,20.8-12.37,9-3.32,20.42-5,33.95-5a104.62,104.62,0,0,1,25.72,3.17,66.66,66.66,0,0,1,21.33,9.44,44.13,44.13,0,0,1,14,15.69c3.39,6.36,5.11,14.12,5.11,23.08s6,22,22.32,22c8.15,0,13.07-3.39,15.77-6.23,5.8-6.12,5.88-14.38,5.84-15.95a88.26,88.26,0,0,0-6.94-34.7,81.14,81.14,0,0,0-21.07-29c-9.21-8.18-20.86-14.69-34.62-19.34-13.57-4.58-29.53-6.9-47.45-6.9-17.59,0-33.43,2.18-47.09,6.47-13.82,4.34-25.55,10.32-34.88,17.78a77.78,77.78,0,0,0-21.63,26.41,70.08,70.08,0,0,0-7.37,31c0,14.93,3.1,27.59,9.21,37.61a75.27,75.27,0,0,0,23.39,24.12,120.73,120.73,0,0,0,31.62,14.31c11.24,3.35,22.93,6.28,34.76,8.73,11.44,2.37,22.85,4.85,33.91,7.37a128.79,128.79,0,0,1,27.65,9.45,52.22,52.22,0,0,1,18,13.91c4.14,5.12,6.15,11.86,6.15,20.61a46.17,46.17,0,0,1-3.74,18.37,40.46,40.46,0,0,1-11.39,15c-5.29,4.46-12.39,8.08-21.09,10.78-9,2.78-19.9,4.19-32.47,4.19a131.19,131.19,0,0,1-30.47-3.39,70.68,70.68,0,0,1-23.93-10.35,55,55,0,0,1-16.45-18c-4.24-7.32-6.91-16.48-7.93-27.15,0-2.43-.56-10.86-6.51-17.11-4-4.18-9.48-6.44-15.91-6.55-7.86-.11-12.77,3.17-15.5,6-6.47,6.68-6.52,16.32-6.46,18.15,0,16.12,3.07,30.44,9.07,42.55a86.55,86.55,0,0,0,25.35,30.67,109.26,109.26,0,0,0,37.76,18.14,174.94,174.94,0,0,0,45.94,5.8c36.66,0,65.75-7.56,86.46-22.47,21.56-15.53,32.49-37.63,32.49-65.7C2670.65,1184.09,2667.82,1171.65,2662.22,1161.68Z" transform="translate(0.77 0)"/><path class="cls-3" d="M1564,1339.51h17.73a20.7,20.7,0,0,1,8,1.32,13.56,13.56,0,0,1,4.94,3.34,11.45,11.45,0,0,1,2.53,4.56,17.78,17.78,0,0,1,.71,4.88,13,13,0,0,1-.85,4.66,13.18,13.18,0,0,1-2.46,4,13.94,13.94,0,0,1-3.91,3.07,13.61,13.61,0,0,1-5.16,1.53l14.31,23h-8.55l-12.81-22.21h-7.61v22.21H1564Zm6.84,22.21h9a24.76,24.76,0,0,0,4-.32,10.5,10.5,0,0,0,3.49-1.18,6.36,6.36,0,0,0,2.46-2.45,9.89,9.89,0,0,0,0-8.33,6.43,6.43,0,0,0-2.46-2.45,10.73,10.73,0,0,0-3.49-1.18,24.76,24.76,0,0,0-4-.32h-9Z" transform="translate(0.77 0)"/><path class="cls-3" d="M1608.79,1375.39a8.46,8.46,0,0,0,1,4,9.85,9.85,0,0,0,2.53,3.09,11.61,11.61,0,0,0,3.63,2,13.15,13.15,0,0,0,4.27.71,9.56,9.56,0,0,0,5.2-1.39,16.74,16.74,0,0,0,4-3.67l4.84,3.71q-5.34,6.9-14.94,6.9a18.63,18.63,0,0,1-7.23-1.35,15.75,15.75,0,0,1-5.48-3.74,16.52,16.52,0,0,1-3.45-5.62,19.82,19.82,0,0,1-1.21-7,18.38,18.38,0,0,1,1.32-7,17.15,17.15,0,0,1,3.63-5.63,16.53,16.53,0,0,1,5.51-3.73,17.8,17.8,0,0,1,7-1.36,16.73,16.73,0,0,1,7.58,1.57,15,15,0,0,1,5.09,4.09,16.32,16.32,0,0,1,2.88,5.7,23.83,23.83,0,0,1,.89,6.44v2.28Zm20.22-5.13a13.66,13.66,0,0,0-.68-3.91,8.53,8.53,0,0,0-1.82-3.1,8.15,8.15,0,0,0-3-2.06,11,11,0,0,0-4.24-.75,10.47,10.47,0,0,0-7.61,3.2,10.81,10.81,0,0,0-2.1,3.17,8.66,8.66,0,0,0-.75,3.45Z" transform="translate(0.77 0)"/><path class="cls-3" d="M1642.56,1356.17h6.4v5.19h.15a9.35,9.35,0,0,1,4.2-4.37,13.83,13.83,0,0,1,6.9-1.68,14.58,14.58,0,0,1,4.66.75,10.61,10.61,0,0,1,3.92,2.31,11.36,11.36,0,0,1,2.67,4,15.44,15.44,0,0,1,1,5.8v21.71h-6.4V1370a11.37,11.37,0,0,0-.64-4,7.41,7.41,0,0,0-1.71-2.71,6.24,6.24,0,0,0-2.46-1.49,9,9,0,0,0-2.88-.47,10.61,10.61,0,0,0-3.7.64,7.77,7.77,0,0,0-3,2,9.44,9.44,0,0,0-2,3.53,15.8,15.8,0,0,0-.72,5v17.37h-6.4Z" transform="translate(0.77 0)"/><path class="cls-3" d="M1698.84,1364.64a9.75,9.75,0,0,0-2.81-2.39,8.09,8.09,0,0,0-4.09-1,7.78,7.78,0,0,0-4,1,3.06,3.06,0,0,0-1.67,2.82,3.22,3.22,0,0,0,1,2.42,7.69,7.69,0,0,0,2.28,1.49,13.13,13.13,0,0,0,2.81.85l2.56.5a29.9,29.9,0,0,1,3.88,1.21,10.84,10.84,0,0,1,3.13,1.85,7.92,7.92,0,0,1,2.06,2.78,9.52,9.52,0,0,1,.75,4,9.32,9.32,0,0,1-1.21,4.88,10.23,10.23,0,0,1-3.13,3.31,13.25,13.25,0,0,1-4.38,1.85,21.71,21.71,0,0,1-4.94.57,19.64,19.64,0,0,1-7.37-1.28,13.29,13.29,0,0,1-5.66-4.7l4.84-4a20.15,20.15,0,0,0,3.49,2.77,8.62,8.62,0,0,0,4.7,1.21,12.2,12.2,0,0,0,2.45-.25,7.59,7.59,0,0,0,2.21-.78,4.89,4.89,0,0,0,1.56-1.35,3.07,3.07,0,0,0,.61-1.89,3.27,3.27,0,0,0-.89-2.35,6.61,6.61,0,0,0-2.14-1.46,15.56,15.56,0,0,0-2.63-.85l-2.46-.54c-1.37-.33-2.68-.71-3.91-1.13a11.93,11.93,0,0,1-3.27-1.71,7.91,7.91,0,0,1-2.28-2.71,8.67,8.67,0,0,1-.86-4,9.19,9.19,0,0,1,1.11-4.6,9.73,9.73,0,0,1,2.92-3.23,13.13,13.13,0,0,1,4.12-1.93,17.76,17.76,0,0,1,4.67-.64,17.17,17.17,0,0,1,6.54,1.28,10.42,10.42,0,0,1,5,4.28Z" transform="translate(0.77 0)"/><path class="cls-3" d="M1729.62,1364.64a9.88,9.88,0,0,0-2.81-2.39,8.11,8.11,0,0,0-4.09-1,7.78,7.78,0,0,0-4,1,3.07,3.07,0,0,0-1.68,2.82,3.22,3.22,0,0,0,1,2.42,7.69,7.69,0,0,0,2.28,1.49,13.48,13.48,0,0,0,2.81.85l2.57.5a30.24,30.24,0,0,1,3.87,1.21,10.9,10.9,0,0,1,3.14,1.85,8.17,8.17,0,0,1,2.06,2.78,9.52,9.52,0,0,1,.75,4,9.42,9.42,0,0,1-1.21,4.88,10.23,10.23,0,0,1-3.13,3.31,13.25,13.25,0,0,1-4.38,1.85,21.86,21.86,0,0,1-5,.57,19.59,19.59,0,0,1-7.36-1.28,13.23,13.23,0,0,1-5.66-4.7l4.84-4a20.08,20.08,0,0,0,3.48,2.77,8.65,8.65,0,0,0,4.7,1.21,12.23,12.23,0,0,0,2.46-.25,7.52,7.52,0,0,0,2.2-.78,4.93,4.93,0,0,0,1.57-1.35,3.13,3.13,0,0,0,.6-1.89,3.26,3.26,0,0,0-.88-2.35,6.72,6.72,0,0,0-2.14-1.46,15.86,15.86,0,0,0-2.63-.85l-2.46-.54c-1.38-.33-2.68-.71-3.91-1.13a12,12,0,0,1-3.28-1.71,7.91,7.91,0,0,1-2.28-2.71,8.67,8.67,0,0,1-.85-4,9.29,9.29,0,0,1,1.1-4.6,9.84,9.84,0,0,1,2.92-3.23,13.18,13.18,0,0,1,4.13-1.93,17.69,17.69,0,0,1,4.66-.64,17.22,17.22,0,0,1,6.55,1.28,10.35,10.35,0,0,1,5,4.28Z" transform="translate(0.77 0)"/><path class="cls-3" d="M1746.87,1375.39a8.46,8.46,0,0,0,1,4,10,10,0,0,0,2.53,3.09,11.61,11.61,0,0,0,3.63,2,13.15,13.15,0,0,0,4.27.71,9.53,9.53,0,0,0,5.2-1.39,16.74,16.74,0,0,0,4-3.67l4.84,3.71q-5.34,6.9-14.94,6.9a18.63,18.63,0,0,1-7.23-1.35,15.75,15.75,0,0,1-5.48-3.74,16.68,16.68,0,0,1-3.45-5.62,19.82,19.82,0,0,1-1.21-7,18.38,18.38,0,0,1,1.32-7,17.15,17.15,0,0,1,3.63-5.63,16.53,16.53,0,0,1,5.51-3.73,17.8,17.8,0,0,1,7-1.36,16.73,16.73,0,0,1,7.58,1.57,15,15,0,0,1,5.09,4.09,16.16,16.16,0,0,1,2.88,5.7,23.83,23.83,0,0,1,.89,6.44v2.28Zm20.22-5.13a13.66,13.66,0,0,0-.68-3.91,8.65,8.65,0,0,0-1.81-3.1,8.27,8.27,0,0,0-3-2.06,11,11,0,0,0-4.23-.75,10.47,10.47,0,0,0-7.62,3.2,10.81,10.81,0,0,0-2.1,3.17,8.66,8.66,0,0,0-.75,3.45Z" transform="translate(0.77 0)"/><path class="cls-3" d="M1780.82,1336.1h6.41v53.81h-6.41Z" transform="translate(0.77 0)"/><path class="cls-3" d="M1795.91,1360.3a17.83,17.83,0,0,1,6.26-3.74,21.41,21.41,0,0,1,7.12-1.25,19.45,19.45,0,0,1,6.37.93,12.37,12.37,0,0,1,4.37,2.49,9.73,9.73,0,0,1,2.53,3.59,11.19,11.19,0,0,1,.82,4.24v17.22c0,1.19,0,2.28.07,3.28s.12,1.94.21,2.85H1818q-.21-2.57-.21-5.13h-.15a12.23,12.23,0,0,1-5,4.63,16,16,0,0,1-6.76,1.35,15.36,15.36,0,0,1-4.48-.64,11,11,0,0,1-3.74-1.92,9.23,9.23,0,0,1-2.53-3.17,11,11,0,0,1,.53-9.86,11.11,11.11,0,0,1,4-3.59,19,19,0,0,1,5.91-2,40.31,40.31,0,0,1,7.22-.61h4.7v-1.42a7.11,7.11,0,0,0-.5-2.57,7,7,0,0,0-1.49-2.31,7.3,7.3,0,0,0-2.49-1.64,9.58,9.58,0,0,0-3.56-.6,13.45,13.45,0,0,0-3.24.35,15,15,0,0,0-2.53.89,11.29,11.29,0,0,0-2.06,1.25c-.62.47-1.21.93-1.78,1.35Zm18.07,13.38a43.75,43.75,0,0,0-4.66.25,17.61,17.61,0,0,0-4.34,1,8.31,8.31,0,0,0-3.2,2,4.5,4.5,0,0,0-1.25,3.27,4.62,4.62,0,0,0,2,4.2,9.51,9.51,0,0,0,5.3,1.28,10.36,10.36,0,0,0,4.49-.88,8.55,8.55,0,0,0,3-2.32,9.06,9.06,0,0,0,1.63-3.16,12.7,12.7,0,0,0,.5-3.46v-2.13Z" transform="translate(0.77 0)"/><path class="cls-3" d="M1836.63,1375.39a8.46,8.46,0,0,0,1,4,10,10,0,0,0,2.52,3.09,11.84,11.84,0,0,0,3.63,2,13.15,13.15,0,0,0,4.27.71,9.51,9.51,0,0,0,5.2-1.39,17,17,0,0,0,4.06-3.67l4.84,3.71q-5.34,6.9-14.95,6.9a18.54,18.54,0,0,1-7.22-1.35,15.79,15.79,0,0,1-5.49-3.74,16.68,16.68,0,0,1-3.45-5.62,19.82,19.82,0,0,1-1.21-7,18.38,18.38,0,0,1,1.32-7,17.48,17.48,0,0,1,3.63-5.63,16.47,16.47,0,0,1,5.52-3.73,17.75,17.75,0,0,1,7-1.36,16.7,16.7,0,0,1,7.58,1.57,14.94,14.94,0,0,1,5.09,4.09,16.16,16.16,0,0,1,2.88,5.7,23.44,23.44,0,0,1,.89,6.44v2.28Zm20.21-5.13a13.32,13.32,0,0,0-.68-3.91,8.65,8.65,0,0,0-1.81-3.1,8.27,8.27,0,0,0-3-2.06,11,11,0,0,0-4.23-.75,10.47,10.47,0,0,0-7.62,3.2,10.81,10.81,0,0,0-2.1,3.17,8.65,8.65,0,0,0-.74,3.45Z" transform="translate(0.77 0)"/><path class="cls-3" d="M1870.39,1356.17h6.41v5.19h.14a9.16,9.16,0,0,1,1.71-2.45A11.13,11.13,0,0,1,1881,1357a12.72,12.72,0,0,1,2.89-1.24,10.9,10.9,0,0,1,3.13-.47,9.05,9.05,0,0,1,2.84.43l-.28,6.9c-.52-.14-1-.25-1.57-.35a8.23,8.23,0,0,0-1.56-.14q-4.7,0-7.19,2.63c-1.66,1.76-2.49,4.48-2.49,8.19v16.94h-6.41Z" transform="translate(0.77 0)"/><path class="cls-3" d="M1953.24,1350.4a14.13,14.13,0,0,0-5.41-4.27,16.21,16.21,0,0,0-6.76-1.49,18.07,18.07,0,0,0-7.72,1.6,17.88,17.88,0,0,0-5.91,4.38,19.89,19.89,0,0,0-3.81,6.51,23.39,23.39,0,0,0-1.35,8,22.2,22.2,0,0,0,1.28,7.54,18.84,18.84,0,0,0,3.7,6.26,17.29,17.29,0,0,0,5.91,4.28,19.14,19.14,0,0,0,7.9,1.56,15.71,15.71,0,0,0,7.62-1.78,16.36,16.36,0,0,0,5.55-5l5.76,4.34a22.79,22.79,0,0,1-2,2.24,19.83,19.83,0,0,1-3.77,2.92,26.66,26.66,0,0,1-5.66,2.56,24.08,24.08,0,0,1-7.65,1.11,24.88,24.88,0,0,1-10.79-2.28,26.4,26.4,0,0,1-15.12-23.77,29.6,29.6,0,0,1,1.92-10.79,25.48,25.48,0,0,1,5.38-8.54,24.08,24.08,0,0,1,8.29-5.59,27.89,27.89,0,0,1,10.67-2,26.17,26.17,0,0,1,9.79,1.92,18.33,18.33,0,0,1,7.87,5.91Z" transform="translate(0.77 0)"/><path class="cls-3" d="M1970.2,1375.39a8.46,8.46,0,0,0,1,4,10,10,0,0,0,2.52,3.09,11.84,11.84,0,0,0,3.63,2,13.15,13.15,0,0,0,4.27.71,9.51,9.51,0,0,0,5.2-1.39,17,17,0,0,0,4.06-3.67l4.84,3.71q-5.34,6.9-15,6.9a18.63,18.63,0,0,1-7.23-1.35,15.84,15.84,0,0,1-5.48-3.74,16.68,16.68,0,0,1-3.45-5.62,20,20,0,0,1-1.21-7,18.38,18.38,0,0,1,1.32-7,17.48,17.48,0,0,1,3.63-5.63,16.47,16.47,0,0,1,5.52-3.73,17.75,17.75,0,0,1,7-1.36,16.7,16.7,0,0,1,7.58,1.57,14.94,14.94,0,0,1,5.09,4.09,16.16,16.16,0,0,1,2.88,5.7,23.44,23.44,0,0,1,.89,6.44v2.28Zm20.21-5.13a13.32,13.32,0,0,0-.68-3.91,8.65,8.65,0,0,0-1.81-3.1,8.27,8.27,0,0,0-3-2.06,11,11,0,0,0-4.23-.75,10.47,10.47,0,0,0-7.62,3.2,10.81,10.81,0,0,0-2.1,3.17,8.65,8.65,0,0,0-.74,3.45Z" transform="translate(0.77 0)"/><path class="cls-3" d="M2004,1356.17h6.41v5.19h.14a9.45,9.45,0,0,1,4.2-4.37,13.83,13.83,0,0,1,6.9-1.68,14.64,14.64,0,0,1,4.67.75,10.57,10.57,0,0,1,3.91,2.31,11.23,11.23,0,0,1,2.67,4,15.43,15.43,0,0,1,1,5.8v21.71h-6.41V1370a11.15,11.15,0,0,0-.64-4,7.41,7.41,0,0,0-1.71-2.71,6.28,6.28,0,0,0-2.45-1.49,9.07,9.07,0,0,0-2.89-.47,10.61,10.61,0,0,0-3.7.64,7.84,7.84,0,0,0-3,2,9.58,9.58,0,0,0-2,3.53,15.82,15.82,0,0,0-.71,5v17.37H2004Z" transform="translate(0.77 0)"/><path class="cls-3" d="M2060.71,1361.72h-9.18V1377c0,1,0,1.89.07,2.81a7.46,7.46,0,0,0,.53,2.5,4.07,4.07,0,0,0,1.43,1.77,4.78,4.78,0,0,0,2.81.68,13.77,13.77,0,0,0,2.35-.21,6.72,6.72,0,0,0,2.2-.79v5.84a8.36,8.36,0,0,1-3,.89,21.53,21.53,0,0,1-2.81.25,12.84,12.84,0,0,1-5.73-1,7.07,7.07,0,0,1-3-2.67,8.64,8.64,0,0,1-1.14-3.67c-.12-1.35-.18-2.71-.18-4.09v-17.58h-7.4v-5.55h7.4v-9.47h6.41v9.47h9.18Z" transform="translate(0.77 0)"/><path class="cls-3" d="M2071.3,1375.39a8.46,8.46,0,0,0,1,4,10,10,0,0,0,2.53,3.09,11.61,11.61,0,0,0,3.63,2,13.15,13.15,0,0,0,4.27.71,9.53,9.53,0,0,0,5.2-1.39,16.74,16.74,0,0,0,4.05-3.67l4.84,3.71q-5.34,6.9-14.94,6.9a18.63,18.63,0,0,1-7.23-1.35,15.75,15.75,0,0,1-5.48-3.74,16.68,16.68,0,0,1-3.45-5.62,19.82,19.82,0,0,1-1.21-7,18.38,18.38,0,0,1,1.32-7,17.15,17.15,0,0,1,3.63-5.63,16.53,16.53,0,0,1,5.51-3.73,17.8,17.8,0,0,1,7-1.36,16.73,16.73,0,0,1,7.58,1.57,15,15,0,0,1,5.09,4.09,16.32,16.32,0,0,1,2.88,5.7,23.83,23.83,0,0,1,.89,6.44v2.28Zm20.22-5.13a13.66,13.66,0,0,0-.68-3.91,8.53,8.53,0,0,0-1.82-3.1,8.15,8.15,0,0,0-3-2.06,11,11,0,0,0-4.24-.75,10.47,10.47,0,0,0-7.61,3.2,10.81,10.81,0,0,0-2.1,3.17,8.66,8.66,0,0,0-.75,3.45Z" transform="translate(0.77 0)"/><path class="cls-3" d="M2105.07,1356.17h6.4v5.19h.15a8.91,8.91,0,0,1,1.7-2.45,11.44,11.44,0,0,1,2.39-1.89,12.84,12.84,0,0,1,2.88-1.24,11,11,0,0,1,3.13-.47,9.07,9.07,0,0,1,2.85.43l-.28,6.9c-.53-.14-1.05-.25-1.57-.35a8.26,8.26,0,0,0-1.57-.14q-4.7,0-7.18,2.63c-1.67,1.76-2.5,4.48-2.5,8.19v16.94h-6.4Z" transform="translate(0.77 0)"/><path class="cls-3" d="M2153.68,1361.72h-7.26v-5.55h7.26v-7.55q0-6.75,2.6-10.07t8.93-3.31c.71,0,1.46,0,2.24.07a13,13,0,0,1,2.53.43l-.71,5.69a9.35,9.35,0,0,0-1.78-.49,10.75,10.75,0,0,0-1.85-.15,6.35,6.35,0,0,0-2.85.54,3.92,3.92,0,0,0-1.67,1.53,5.92,5.92,0,0,0-.78,2.38,24.91,24.91,0,0,0-.18,3.17v7.76h7.61v5.55h-7.68v28.19h-6.41Z" transform="translate(0.77 0)"/><path class="cls-3" d="M2170.67,1373a17.13,17.13,0,0,1,1.39-6.91,18.08,18.08,0,0,1,29.29-5.62,18.14,18.14,0,0,1,3.81,5.62,17.3,17.3,0,0,1,1.38,6.91,17.47,17.47,0,0,1-5.19,12.56,18,18,0,0,1-5.7,3.77,18.55,18.55,0,0,1-14.09,0,17.94,17.94,0,0,1-5.69-3.77,17.53,17.53,0,0,1-5.2-12.56Zm6.83,0a13.65,13.65,0,0,0,.79,4.73,10.58,10.58,0,0,0,2.2,3.7,10.16,10.16,0,0,0,3.49,2.42,12.46,12.46,0,0,0,9.25,0,10.16,10.16,0,0,0,3.49-2.42,10.6,10.6,0,0,0,2.21-3.7,14.76,14.76,0,0,0,0-9.47,10.7,10.7,0,0,0-2.21-3.7,10.29,10.29,0,0,0-3.49-2.42,12.46,12.46,0,0,0-9.25,0,10.29,10.29,0,0,0-3.49,2.42,10.68,10.68,0,0,0-2.2,3.7A13.71,13.71,0,0,0,2177.5,1373Z" transform="translate(0.77 0)"/><path class="cls-3" d="M2213.38,1356.17h6.41v5.19h.14a9.16,9.16,0,0,1,1.71-2.45A11.38,11.38,0,0,1,2224,1357a12.72,12.72,0,0,1,2.89-1.24,10.9,10.9,0,0,1,3.13-.47,9.16,9.16,0,0,1,2.85.43l-.29,6.9c-.52-.14-1-.25-1.56-.35a8.41,8.41,0,0,0-1.57-.14q-4.69,0-7.19,2.63c-1.66,1.76-2.49,4.48-2.49,8.19v16.94h-6.41Z" transform="translate(0.77 0)"/><path class="cls-3" d="M2284.28,1391.19a27.22,27.22,0,0,1-10.61-2,24.65,24.65,0,0,1-8.29-5.59,25.71,25.71,0,0,1-5.41-8.4,28.89,28.89,0,0,1,0-20.92,25.71,25.71,0,0,1,5.41-8.4,24.51,24.51,0,0,1,8.29-5.59,28.72,28.72,0,0,1,21.21,0,24.51,24.51,0,0,1,8.29,5.59,25.71,25.71,0,0,1,5.41,8.4,28.89,28.89,0,0,1,0,20.92,25.71,25.71,0,0,1-5.41,8.4,24.65,24.65,0,0,1-8.29,5.59A27.21,27.21,0,0,1,2284.28,1391.19Zm0-6.41a18.3,18.3,0,0,0,13.8-5.91,18.9,18.9,0,0,0,3.85-6.37,23.15,23.15,0,0,0,0-15.58,19,19,0,0,0-3.85-6.38,18.89,18.89,0,0,0-27.61,0,19,19,0,0,0-3.85,6.38,23.15,23.15,0,0,0,0,15.58,18.9,18.9,0,0,0,3.85,6.37,18.3,18.3,0,0,0,13.81,5.91Z" transform="translate(0.77 0)"/><path class="cls-3" d="M2318,1356.17h6.4V1361h.14a12.29,12.29,0,0,1,5.09-4.2,15.69,15.69,0,0,1,6.66-1.5,17.88,17.88,0,0,1,7.08,1.36,15.74,15.74,0,0,1,5.41,3.77,17.05,17.05,0,0,1,3.45,5.66,19.59,19.59,0,0,1,1.21,6.94,19.82,19.82,0,0,1-1.21,7,16.68,16.68,0,0,1-3.45,5.62,15.94,15.94,0,0,1-5.41,3.74,17.87,17.87,0,0,1-7.08,1.35,15.7,15.7,0,0,1-6.84-1.53,11.75,11.75,0,0,1-4.91-4.16h-.14V1410H2318Zm17.5,5.12a11.61,11.61,0,0,0-4.62.89,10.29,10.29,0,0,0-3.49,2.42,10.85,10.85,0,0,0-2.21,3.7,14.76,14.76,0,0,0,0,9.47,10.76,10.76,0,0,0,2.21,3.7,10.16,10.16,0,0,0,3.49,2.42,12.46,12.46,0,0,0,9.25,0,10.16,10.16,0,0,0,3.49-2.42,10.58,10.58,0,0,0,2.2-3.7,14.59,14.59,0,0,0,0-9.47,10.68,10.68,0,0,0-2.2-3.7,10.29,10.29,0,0,0-3.49-2.42A11.65,11.65,0,0,0,2335.51,1361.29Z" transform="translate(0.77 0)"/><path class="cls-3" d="M2365.2,1375.39a8.46,8.46,0,0,0,1,4,10,10,0,0,0,2.52,3.09,11.84,11.84,0,0,0,3.63,2,13.15,13.15,0,0,0,4.27.71,9.51,9.51,0,0,0,5.2-1.39,17,17,0,0,0,4.06-3.67l4.84,3.71q-5.34,6.9-14.95,6.9a18.63,18.63,0,0,1-7.23-1.35,15.75,15.75,0,0,1-5.48-3.74,16.68,16.68,0,0,1-3.45-5.62,19.82,19.82,0,0,1-1.21-7,18.38,18.38,0,0,1,1.32-7,17.48,17.48,0,0,1,3.63-5.63,16.53,16.53,0,0,1,5.51-3.73,17.84,17.84,0,0,1,7-1.36,16.7,16.7,0,0,1,7.58,1.57,14.94,14.94,0,0,1,5.09,4.09,16.16,16.16,0,0,1,2.88,5.7,23.44,23.44,0,0,1,.89,6.44v2.28Zm20.21-5.13a13.32,13.32,0,0,0-.68-3.91,8.65,8.65,0,0,0-1.81-3.1,8.27,8.27,0,0,0-3-2.06,11,11,0,0,0-4.23-.75,10.47,10.47,0,0,0-7.62,3.2,10.81,10.81,0,0,0-2.1,3.17,8.65,8.65,0,0,0-.74,3.45Z" transform="translate(0.77 0)"/><path class="cls-3" d="M2399,1356.17h6.41v5.19h.14a9.45,9.45,0,0,1,4.2-4.37,13.83,13.83,0,0,1,6.9-1.68,14.64,14.64,0,0,1,4.67.75,10.65,10.65,0,0,1,3.91,2.31,11.36,11.36,0,0,1,2.67,4,15.43,15.43,0,0,1,1,5.8v21.71h-6.41V1370a11.15,11.15,0,0,0-.64-4,7.41,7.41,0,0,0-1.71-2.71,6.28,6.28,0,0,0-2.45-1.49,9.07,9.07,0,0,0-2.89-.47,10.61,10.61,0,0,0-3.7.64,7.84,7.84,0,0,0-3,2,9.58,9.58,0,0,0-2,3.53,15.82,15.82,0,0,0-.71,5v17.37H2399Z" transform="translate(0.77 0)"/><path class="cls-3" d="M2461.45,1379.37a11.23,11.23,0,0,0,4.74,4.09,14.11,14.11,0,0,0,5.94,1.32,12.33,12.33,0,0,0,3.49-.53,10.89,10.89,0,0,0,3.24-1.6,8.85,8.85,0,0,0,2.38-2.64,7,7,0,0,0,.93-3.63,5.46,5.46,0,0,0-1.85-4.45,16.2,16.2,0,0,0-4.59-2.56q-2.74-1-6-2a24.13,24.13,0,0,1-6-2.67,14.57,14.57,0,0,1-4.59-4.59,14.25,14.25,0,0,1-1.85-7.8,13.05,13.05,0,0,1,1-4.69,13.2,13.2,0,0,1,3-4.56,16.77,16.77,0,0,1,5.31-3.45,19.59,19.59,0,0,1,7.79-1.39,27.19,27.19,0,0,1,7.9,1.14,13.58,13.58,0,0,1,6.62,4.63l-5.55,5a9.23,9.23,0,0,0-3.63-3.2,11.47,11.47,0,0,0-5.34-1.21,13.08,13.08,0,0,0-4.73.74,8.45,8.45,0,0,0-3,1.93,6.76,6.76,0,0,0-1.6,2.52,7.72,7.72,0,0,0-.46,2.49,6.34,6.34,0,0,0,1.85,4.92A14.41,14.41,0,0,0,2471,1360a55.41,55.41,0,0,0,6,1.92,25.68,25.68,0,0,1,6,2.39,13.94,13.94,0,0,1,4.59,4.13,12.15,12.15,0,0,1,1.85,7.15,15.16,15.16,0,0,1-1.39,6.55,14.61,14.61,0,0,1-3.74,4.91,16.41,16.41,0,0,1-5.55,3.06,21.48,21.48,0,0,1-6.83,1.07,24.79,24.79,0,0,1-9.18-1.71,15.13,15.13,0,0,1-6.91-5.27Z" transform="translate(0.77 0)"/><path class="cls-3" d="M2494.84,1373a17.3,17.3,0,0,1,1.38-6.91,18.14,18.14,0,0,1,3.81-5.62,18,18,0,0,1,29.29,5.62,17.13,17.13,0,0,1,1.39,6.91,17.53,17.53,0,0,1-5.2,12.56,18.06,18.06,0,0,1-12.74,5.16,18.1,18.1,0,0,1-12.74-5.16,17.47,17.47,0,0,1-5.19-12.56Zm6.83,0a13.89,13.89,0,0,0,.78,4.73,10.6,10.6,0,0,0,2.21,3.7,10.16,10.16,0,0,0,3.49,2.42,12.46,12.46,0,0,0,9.25,0,10.16,10.16,0,0,0,3.49-2.42,10.58,10.58,0,0,0,2.2-3.7,14.59,14.59,0,0,0,0-9.47,10.68,10.68,0,0,0-2.2-3.7,10.29,10.29,0,0,0-3.49-2.42,12.46,12.46,0,0,0-9.25,0,10.29,10.29,0,0,0-3.49,2.42,10.7,10.7,0,0,0-2.21,3.7A14,14,0,0,0,2501.67,1373Z" transform="translate(0.77 0)"/><path class="cls-3" d="M2567.18,1389.91h-6.41v-5.2h-.14a9.47,9.47,0,0,1-4.2,4.38,13.93,13.93,0,0,1-6.9,1.67,14.51,14.51,0,0,1-4.7-.75,10.69,10.69,0,0,1-3.88-2.31,11.23,11.23,0,0,1-2.67-4,15.48,15.48,0,0,1-1-5.8v-21.71h6.4v19.93a11.23,11.23,0,0,0,.64,4,7.37,7.37,0,0,0,1.71,2.7,6.39,6.39,0,0,0,2.46,1.5,9,9,0,0,0,2.88.46,10.38,10.38,0,0,0,3.7-.64,7.73,7.73,0,0,0,3-2,9.54,9.54,0,0,0,2-3.52,15.86,15.86,0,0,0,.71-5v-17.37h6.41Z" transform="translate(0.77 0)"/><path class="cls-3" d="M2575.8,1356.17h6.41v5.19h.14a9.16,9.16,0,0,1,1.71-2.45,11.13,11.13,0,0,1,2.38-1.89,12.84,12.84,0,0,1,2.88-1.24,11,11,0,0,1,3.14-.47,9.05,9.05,0,0,1,2.84.43l-.28,6.9c-.52-.14-1.05-.25-1.57-.35a8.23,8.23,0,0,0-1.56-.14c-3.14,0-5.53.88-7.19,2.63s-2.49,4.48-2.49,8.19v16.94h-6.41Z" transform="translate(0.77 0)"/><path class="cls-3" d="M2624.11,1365.14a13.5,13.5,0,0,0-3.73-2.82,10.52,10.52,0,0,0-4.67-1,10.34,10.34,0,0,0-4.59,1,9.47,9.47,0,0,0-3.27,2.64,11.68,11.68,0,0,0-2,3.84,15.18,15.18,0,0,0-.68,4.52,12.66,12.66,0,0,0,.78,4.45,11.42,11.42,0,0,0,2.21,3.67,10.16,10.16,0,0,0,3.42,2.45,10.92,10.92,0,0,0,4.48.89,10.28,10.28,0,0,0,4.63-1,12,12,0,0,0,3.56-2.81l4.55,4.55a14.35,14.35,0,0,1-5.8,4,20.18,20.18,0,0,1-7,1.21,19.35,19.35,0,0,1-7.15-1.28,16.55,16.55,0,0,1-5.59-3.6,15.74,15.74,0,0,1-3.63-5.55,19.35,19.35,0,0,1-1.28-7.15,19.64,19.64,0,0,1,1.28-7.19,16,16,0,0,1,9.15-9.29,18.91,18.91,0,0,1,7.22-1.32,19.26,19.26,0,0,1,7.08,1.32,15.57,15.57,0,0,1,5.87,4Z" transform="translate(0.77 0)"/><path class="cls-3" d="M2637.79,1375.39a8.46,8.46,0,0,0,1,4,10,10,0,0,0,2.52,3.09,11.84,11.84,0,0,0,3.63,2,13.15,13.15,0,0,0,4.27.71,9.51,9.51,0,0,0,5.2-1.39,17,17,0,0,0,4.06-3.67l4.84,3.71q-5.34,6.9-14.95,6.9a18.54,18.54,0,0,1-7.22-1.35,15.66,15.66,0,0,1-5.48-3.74,16.54,16.54,0,0,1-3.46-5.62,20,20,0,0,1-1.21-7,18.38,18.38,0,0,1,1.32-7,17.48,17.48,0,0,1,3.63-5.63,16.47,16.47,0,0,1,5.52-3.73,17.75,17.75,0,0,1,7-1.36,16.7,16.7,0,0,1,7.58,1.57,14.94,14.94,0,0,1,5.09,4.09,16.16,16.16,0,0,1,2.88,5.7,23.44,23.44,0,0,1,.89,6.44v2.28Zm20.21-5.13a13.32,13.32,0,0,0-.68-3.91,8.51,8.51,0,0,0-1.81-3.1,8.32,8.32,0,0,0-3-2.06,11.11,11.11,0,0,0-4.24-.75,10.47,10.47,0,0,0-7.62,3.2,10.81,10.81,0,0,0-2.1,3.17,8.82,8.82,0,0,0-.74,3.45Z" transform="translate(0.77 0)"/><path class="cls-4" d="M217.63.5C97.71.5.5,97.71.5,217.63S97.71,434.76,217.63,434.76s217.13-97.21,217.13-217.13S337.55.5,217.63.5Zm96.25,309.9a17.93,17.93,0,0,1-5,26,18.19,18.19,0,0,1-24-4.93l-52-69.87a18,18,0,0,1,4.54-26.18A18.4,18.4,0,0,1,243,233.1a51.19,51.19,0,0,0,38.77-51.51C280.88,154.3,257,132,229.72,132H169.25a5.78,5.78,0,0,0-5.79,5.78V321.19a17.93,17.93,0,0,1-19.56,17.86,18.18,18.18,0,0,1-16.3-18.26V114.07a17.93,17.93,0,0,1,17.93-17.93h83.94c47.29,0,86.76,37.27,88.16,84.54a87,87,0,0,1-42.51,77.6h0Z" transform="translate(0.77 0)"/><path class="cls-4" d="M237.65,686.78C235.9,627.46,186.38,580.7,127,580.7H21.73A22.51,22.51,0,0,0-.77,603.2V862.56c0,11.73,8.77,21.89,20.46,22.92a22.5,22.5,0,0,0,24.54-22.41V633a7.26,7.26,0,0,1,7.26-7.26h75.87c34.26,0,64.19,28,65.31,62.22A64.23,64.23,0,0,1,144,752.55a22.5,22.5,0,0,0-12.67,35.77L196.55,876c7,9.41,20.09,12.33,30.09,6.18A22.5,22.5,0,0,0,233,849.53l-48.64-65.4h0A109.15,109.15,0,0,0,237.65,686.78Z" transform="translate(0.77 0)"/><path class="cls-4" d="M415.92,625.7a106.76,106.76,0,0,1,76,31.47,22.5,22.5,0,0,0,31.82-31.82A151.44,151.44,0,0,0,415.92,580.7c-84.05,0-152.44,68.39-152.44,152.44s68.39,152.43,152.44,152.43a151.43,151.43,0,0,0,107.79-44.64,22.5,22.5,0,0,0-31.82-31.82,107.44,107.44,0,1,1-76-183.41Z" transform="translate(0.77 0)"/><path class="cls-4" d="M698.51,580.7c-84,0-152.43,68.39-152.43,152.44s68.38,152.43,152.43,152.43S851,817.19,851,733.14,782.56,580.7,698.51,580.7Zm0,259.87A107.44,107.44,0,1,1,806,733.14,107.55,107.55,0,0,1,698.51,840.57Z" transform="translate(0.77 0)"/><path class="cls-4" d="M1100.34,760.42h0a71.87,71.87,0,0,0-22.18-24.28,113.59,113.59,0,0,0-30.26-14.37c-10.71-3.35-22-6.29-33.44-8.75-11.31-2.42-22.49-4.73-33.23-6.87a177.91,177.91,0,0,1-28.4-8,68,68,0,0,1-20.31-11.64c-4.76-4.1-7.73-9.53-9.07-16.61a33.56,33.56,0,0,1,1-17.15,39.19,39.19,0,0,1,10.15-16c5-5,12-9.13,20.86-12.37,9-3.32,20.47-5,34-5a105.12,105.12,0,0,1,25.79,3.17A67,67,0,0,1,1036.7,632a44.24,44.24,0,0,1,14,15.69c3.4,6.36,5.12,14.12,5.12,23.08s6,22,22.38,22c8.17,0,13.11-3.39,15.81-6.23,5.82-6.12,5.9-14.38,5.86-16a88.27,88.27,0,0,0-7-34.7,81.28,81.28,0,0,0-21.12-29c-9.24-8.18-20.92-14.69-34.72-19.34-13.6-4.58-29.61-6.9-47.58-6.9-17.63,0-33.52,2.18-47.21,6.47-13.86,4.35-25.62,10.33-35,17.78a77.84,77.84,0,0,0-21.69,26.41,70,70,0,0,0-7.39,31c0,14.94,3.11,27.59,9.24,37.61a75.32,75.32,0,0,0,23.44,24.12,121,121,0,0,0,31.71,14.31c11.27,3.35,23,6.29,34.85,8.73,11.48,2.37,22.92,4.85,34,7.38a128.82,128.82,0,0,1,27.73,9.44,52.52,52.52,0,0,1,18.06,13.91c4.14,5.12,6.16,11.86,6.16,20.61a46,46,0,0,1-3.75,18.37,40.55,40.55,0,0,1-11.42,15c-5.3,4.46-12.42,8.09-21.14,10.78-9,2.78-20,4.19-32.56,4.19A132.45,132.45,0,0,1,964,843.47a71,71,0,0,1-24-10.36,55,55,0,0,1-16.49-18c-4.25-7.32-6.93-16.48-7.95-27.14,0-2.44-.56-10.86-6.53-17.12-4-4.17-9.5-6.44-15.95-6.55-7.88-.11-12.81,3.18-15.54,6-6.49,6.68-6.54,16.31-6.48,18.14,0,16.13,3.08,30.44,9.1,42.55a86.44,86.44,0,0,0,25.41,30.67,109.67,109.67,0,0,0,37.86,18.14,175.86,175.86,0,0,0,46.06,5.8c36.76,0,65.93-7.56,86.7-22.47,21.61-15.52,32.57-37.63,32.57-65.7C1108.79,782.84,1106,770.4,1100.34,760.42Z" transform="translate(0.77 0)"/><path class="cls-4" d="M378.24,1715.72c-1.75-59.31-51.27-106.07-110.61-106.07H162.32a22.5,22.5,0,0,0-22.5,22.5v259.36c0,11.73,8.77,21.89,20.45,22.92A22.51,22.51,0,0,0,184.82,1892V1661.9a7.26,7.26,0,0,1,7.25-7.25H268c34.26,0,64.18,28,65.3,62.22a64.22,64.22,0,0,1-48.63,64.63,22.51,22.51,0,0,0-12.68,35.77l65.19,87.65c7,9.42,20.1,12.33,30.09,6.19a22.51,22.51,0,0,0,6.33-32.63l-48.64-65.4h0A109.18,109.18,0,0,0,378.24,1715.72Z" transform="translate(0.77 0)"/><path class="cls-4" d="M556.51,1654.65a106.73,106.73,0,0,1,76,31.47,22.5,22.5,0,1,0,31.82-31.82,151.44,151.44,0,0,0-107.78-44.65c-84.06,0-152.44,68.38-152.44,152.43s68.38,152.44,152.44,152.44a151.44,151.44,0,0,0,107.78-44.65,22.5,22.5,0,0,0-31.82-31.82,107.43,107.43,0,1,1-76-183.4Z" transform="translate(0.77 0)"/><path class="cls-4" d="M839.1,1609.65c-84.05,0-152.44,68.38-152.44,152.43s68.39,152.44,152.44,152.44,152.43-68.38,152.43-152.44S923.15,1609.65,839.1,1609.65Zm0,259.87a107.44,107.44,0,1,1,107.43-107.44A107.57,107.57,0,0,1,839.1,1869.52Z" transform="translate(0.77 0)"/><path class="cls-4" d="M1240.93,1789.37h0a71.84,71.84,0,0,0-22.18-24.27,114,114,0,0,0-30.27-14.38c-10.7-3.34-22-6.28-33.43-8.75-11.31-2.41-22.49-4.72-33.23-6.87a178.05,178.05,0,0,1-28.41-8,68.25,68.25,0,0,1-20.31-11.65c-4.76-4.09-7.72-9.52-9.07-16.6a33.68,33.68,0,0,1,1-17.15,39.26,39.26,0,0,1,10.14-16c5-5,12-9.12,20.86-12.37,9-3.32,20.47-5,34-5a105.18,105.18,0,0,1,25.79,3.17,66.62,66.62,0,0,1,21.38,9.44,44.14,44.14,0,0,1,14,15.69c3.4,6.35,5.13,14.12,5.13,23.08s6,22,22.38,22c8.17,0,13.11-3.39,15.81-6.24,5.82-6.11,5.9-14.37,5.86-15.94a88.24,88.24,0,0,0-7-34.7,81.4,81.4,0,0,0-21.12-29c-9.24-8.18-20.92-14.69-34.72-19.34-13.6-4.58-29.61-6.9-47.58-6.9-17.64,0-33.52,2.18-47.21,6.47-13.86,4.34-25.63,10.32-35,17.78a77.63,77.63,0,0,0-21.69,26.41,69.83,69.83,0,0,0-7.39,31c0,14.93,3.1,27.58,9.23,37.6a75.28,75.28,0,0,0,23.45,24.13,121.28,121.28,0,0,0,31.7,14.31c11.28,3.35,23,6.28,34.86,8.73,11.47,2.37,22.92,4.85,34,7.37a130.11,130.11,0,0,1,27.73,9.44,52.66,52.66,0,0,1,18.06,13.92c4.14,5.12,6.16,11.86,6.16,20.61a46.18,46.18,0,0,1-3.75,18.37,40.55,40.55,0,0,1-11.42,15c-5.31,4.46-12.42,8.08-21.15,10.78-9,2.78-20,4.19-32.55,4.19a131.92,131.92,0,0,1-30.56-3.39,71,71,0,0,1-24-10.35,55.19,55.19,0,0,1-16.5-18c-4.25-7.32-6.92-16.49-7.94-27.15,0-2.43-.56-10.86-6.54-17.12-4-4.17-9.5-6.43-15.94-6.54-7.89-.11-12.81,3.17-15.55,6-6.48,6.68-6.53,16.31-6.47,18.15,0,16.12,3.07,30.44,9.09,42.54a86.56,86.56,0,0,0,25.41,30.68,109.81,109.81,0,0,0,37.87,18.14,175.86,175.86,0,0,0,46.06,5.8c36.76,0,65.93-7.56,86.69-22.48,21.62-15.52,32.58-37.62,32.58-65.69C1249.38,1811.78,1246.54,1799.34,1240.93,1789.37Z" transform="translate(0.77 0)"/><path class="cls-2" d="M26.11,1510.82H1205.95a167,167,0,0,1,167,167v192.3a167,167,0,0,1-167,167H193.15a167,167,0,0,1-167-167V1510.82a0,0,0,0,1,0,0Z"/><path class="cls-4" d="M1201,2045.28H188.2a187.55,187.55,0,0,1-187-187V1498.89a20,20,0,0,1,20-20H1201a187.55,187.55,0,0,1,187,187v192.31a187.55,187.55,0,0,1-187,187ZM48.4,1518.89a7.24,7.24,0,0,0-7.24,7.24v332.11a147.53,147.53,0,0,0,147,147H1201a147.53,147.53,0,0,0,147-147V1665.93a147.53,147.53,0,0,0-147-147Z" transform="translate(0.77 0)"/><path class="cls-4" d="M239,1088C237.2,1028.72,187.81,982,128.63,982H23.6a22.48,22.48,0,0,0-22.44,22.5v259.36c0,11.73,8.75,21.89,20.4,22.92A22.47,22.47,0,0,0,46,1264.33V1034.22a7.25,7.25,0,0,1,7.24-7.26H129c34.17,0,64,28,65.13,62.22a64.22,64.22,0,0,1-48.51,64.63,22.31,22.31,0,0,0-7,2.92,22.54,22.54,0,0,0-5.68,32.85l65,87.66c7,9.41,20,12.32,30,6.18a22.54,22.54,0,0,0,6.3-32.63l-48.5-65.4h0A109.24,109.24,0,0,0,239,1088Z" transform="translate(0.77 0)"/><path class="cls-4" d="M416.74,1027a106.29,106.29,0,0,1,75.76,31.47,22.47,22.47,0,1,0,31.74-31.82A150.83,150.83,0,0,0,416.74,982c-83.83,0-152,68.38-152,152.44s68.2,152.43,152,152.43a150.83,150.83,0,0,0,107.5-44.65,22.47,22.47,0,1,0-31.74-31.82,106.29,106.29,0,0,1-75.76,31.47c-59.08,0-107.15-48.2-107.15-107.43S357.66,1027,416.74,1027Z" transform="translate(0.77 0)"/><path class="cls-4" d="M698.58,982c-83.83,0-152,68.38-152,152.44s68.2,152.43,152,152.43,152-68.38,152-152.43S782.41,982,698.58,982Zm0,259.87c-59.08,0-107.15-48.2-107.15-107.43S639.5,1027,698.58,1027s107.15,48.2,107.15,107.44S757.66,1241.83,698.58,1241.83Z" transform="translate(0.77 0)"/><path class="cls-4" d="M1099.34,1161.68h0a71.81,71.81,0,0,0-22.12-24.28A113.46,113.46,0,0,0,1047,1123c-10.67-3.34-21.89-6.28-33.34-8.75-11.28-2.41-22.43-4.72-33.15-6.86a177.17,177.17,0,0,1-28.32-8A67.62,67.62,0,0,1,932,1087.78c-4.74-4.09-7.7-9.52-9.05-16.6a33.79,33.79,0,0,1,1-17.15,39.28,39.28,0,0,1,10.11-16c5-5,12-9.12,20.81-12.37,9-3.32,20.42-5,33.94-5a104.7,104.7,0,0,1,25.73,3.17,66.6,66.6,0,0,1,21.32,9.44,44.15,44.15,0,0,1,14,15.69c3.39,6.36,5.11,14.12,5.11,23.08s6,22,22.32,22c8.15,0,13.07-3.39,15.77-6.23,5.8-6.12,5.88-14.38,5.84-15.95a88.44,88.44,0,0,0-6.94-34.7,81.26,81.26,0,0,0-21.07-29c-9.21-8.18-20.86-14.69-34.62-19.34-13.57-4.58-29.53-6.9-47.46-6.9-17.58,0-33.43,2.18-47.08,6.47-13.82,4.34-25.56,10.32-34.88,17.78a77.78,77.78,0,0,0-21.63,26.41,70.08,70.08,0,0,0-7.37,31c0,14.93,3.1,27.59,9.21,37.61a75.17,75.17,0,0,0,23.39,24.12,120.58,120.58,0,0,0,31.62,14.31c11.24,3.35,22.93,6.28,34.75,8.73,11.45,2.37,22.86,4.85,33.91,7.37a128.69,128.69,0,0,1,27.66,9.45,52.22,52.22,0,0,1,18,13.91c4.14,5.12,6.15,11.86,6.15,20.61a46.17,46.17,0,0,1-3.74,18.37,40.57,40.57,0,0,1-11.39,15c-5.29,4.46-12.39,8.08-21.09,10.78-9,2.78-19.9,4.19-32.47,4.19a131.19,131.19,0,0,1-30.47-3.39,70.68,70.68,0,0,1-23.93-10.35,55.09,55.09,0,0,1-16.46-18c-4.23-7.32-6.9-16.48-7.92-27.15,0-2.43-.56-10.86-6.52-17.11-4-4.18-9.47-6.44-15.9-6.55-7.86-.11-12.77,3.17-15.5,6-6.47,6.68-6.52,16.32-6.46,18.15,0,16.12,3.07,30.44,9.07,42.55a86.63,86.63,0,0,0,25.34,30.67A109.39,109.39,0,0,0,942.88,1281a174.92,174.92,0,0,0,45.93,5.8c36.67,0,65.76-7.56,86.47-22.47,21.56-15.53,32.49-37.63,32.49-65.7C1107.77,1184.09,1104.93,1171.65,1099.34,1161.68Z" transform="translate(0.77 0)"/><path class="cls-4" d="M1.16,1339.51H18.88a20.72,20.72,0,0,1,8,1.32,13.64,13.64,0,0,1,4.94,3.34,11.57,11.57,0,0,1,2.53,4.56,18.17,18.17,0,0,1,.71,4.88,13,13,0,0,1-.85,4.66,13.18,13.18,0,0,1-2.46,4,14.09,14.09,0,0,1-3.91,3.07,13.72,13.72,0,0,1-5.16,1.53l14.3,23H28.42L15.61,1367.7H8v22.21H1.16ZM8,1361.72h9a24.76,24.76,0,0,0,3.95-.32,10.5,10.5,0,0,0,3.49-1.18,6.36,6.36,0,0,0,2.46-2.45,9.89,9.89,0,0,0,0-8.33A6.43,6.43,0,0,0,24.4,1347a10.73,10.73,0,0,0-3.49-1.18,24.76,24.76,0,0,0-3.95-.32H8Z" transform="translate(0.77 0)"/><path class="cls-4" d="M45.91,1375.39a8.46,8.46,0,0,0,1,4,9.85,9.85,0,0,0,2.53,3.09,11.61,11.61,0,0,0,3.63,2,13.1,13.1,0,0,0,4.27.71,9.5,9.5,0,0,0,5.19-1.39,16.78,16.78,0,0,0,4.06-3.67l4.84,3.71q-5.34,6.9-15,6.9a18.61,18.61,0,0,1-7.22-1.35,15.66,15.66,0,0,1-5.48-3.74,16.37,16.37,0,0,1-3.45-5.62,19.82,19.82,0,0,1-1.21-7,18.56,18.56,0,0,1,1.31-7A17.48,17.48,0,0,1,44,1360.4a16.57,16.57,0,0,1,5.52-3.73,17.8,17.8,0,0,1,7-1.36,16.76,16.76,0,0,1,7.58,1.57,14.9,14.9,0,0,1,5.08,4.09,16.34,16.34,0,0,1,2.89,5.7,23.83,23.83,0,0,1,.89,6.44v2.28Zm20.21-5.13a13.33,13.33,0,0,0-.67-3.91,8.67,8.67,0,0,0-1.82-3.1,8.15,8.15,0,0,0-3-2.06,11,11,0,0,0-4.24-.75,10.47,10.47,0,0,0-7.61,3.2,10.81,10.81,0,0,0-2.1,3.17,8.66,8.66,0,0,0-.75,3.45Z" transform="translate(0.77 0)"/><path class="cls-4" d="M79.68,1356.17h6.4v5.19h.14a9.45,9.45,0,0,1,4.2-4.37,13.89,13.89,0,0,1,6.91-1.68,14.58,14.58,0,0,1,4.66.75,10.69,10.69,0,0,1,3.92,2.31,11.21,11.21,0,0,1,2.66,4,15.24,15.24,0,0,1,1,5.8v21.71h-6.41V1370a11.15,11.15,0,0,0-.64-4,7.27,7.27,0,0,0-1.7-2.71,6.32,6.32,0,0,0-2.46-1.49,9.05,9.05,0,0,0-2.88-.47,10.61,10.61,0,0,0-3.7.64,7.77,7.77,0,0,0-3,2,9.6,9.6,0,0,0-2,3.53,16.11,16.11,0,0,0-.71,5v17.37h-6.4Z" transform="translate(0.77 0)"/><path class="cls-4" d="M136,1364.64a9.75,9.75,0,0,0-2.81-2.39,8.09,8.09,0,0,0-4.09-1,7.78,7.78,0,0,0-4,1,3.06,3.06,0,0,0-1.67,2.82,3.22,3.22,0,0,0,1,2.42,7.77,7.77,0,0,0,2.27,1.49,13.39,13.39,0,0,0,2.82.85l2.56.5a30.39,30.39,0,0,1,3.88,1.21,10.84,10.84,0,0,1,3.13,1.85,8,8,0,0,1,2.06,2.78,9.52,9.52,0,0,1,.75,4,9.32,9.32,0,0,1-1.21,4.88,10.23,10.23,0,0,1-3.13,3.31,13.25,13.25,0,0,1-4.38,1.85,21.86,21.86,0,0,1-5,.57,19.59,19.59,0,0,1-7.36-1.28,13.29,13.29,0,0,1-5.66-4.7l4.84-4a20.15,20.15,0,0,0,3.49,2.77,8.59,8.59,0,0,0,4.69,1.21,12.23,12.23,0,0,0,2.46-.25,7.59,7.59,0,0,0,2.21-.78,4.89,4.89,0,0,0,1.56-1.35,3.07,3.07,0,0,0,.61-1.89,3.27,3.27,0,0,0-.89-2.35,6.72,6.72,0,0,0-2.14-1.46,15.86,15.86,0,0,0-2.63-.85l-2.46-.54c-1.37-.33-2.68-.71-3.91-1.13a12,12,0,0,1-3.28-1.71,7.88,7.88,0,0,1-2.27-2.71,8.67,8.67,0,0,1-.86-4,9.19,9.19,0,0,1,1.11-4.6,9.7,9.7,0,0,1,2.91-3.23,13.18,13.18,0,0,1,4.13-1.93,17.69,17.69,0,0,1,4.66-.64,17.22,17.22,0,0,1,6.55,1.28,10.42,10.42,0,0,1,5,4.28Z" transform="translate(0.77 0)"/><path class="cls-4" d="M166.74,1364.64a9.88,9.88,0,0,0-2.81-2.39,8.13,8.13,0,0,0-4.1-1,7.84,7.84,0,0,0-4,1,3.08,3.08,0,0,0-1.67,2.82,3.22,3.22,0,0,0,1,2.42,7.69,7.69,0,0,0,2.28,1.49,13.48,13.48,0,0,0,2.81.85l2.56.5a29.9,29.9,0,0,1,3.88,1.21,10.71,10.71,0,0,1,3.13,1.85,8.07,8.07,0,0,1,2.07,2.78,9.52,9.52,0,0,1,.75,4,9.42,9.42,0,0,1-1.21,4.88,10.15,10.15,0,0,1-3.14,3.31,13.29,13.29,0,0,1-4.37,1.85,21.86,21.86,0,0,1-5,.57,19.64,19.64,0,0,1-7.37-1.28,13.27,13.27,0,0,1-5.65-4.7l4.84-4a20.08,20.08,0,0,0,3.48,2.77,8.62,8.62,0,0,0,4.7,1.21,12.3,12.3,0,0,0,2.46-.25,7.52,7.52,0,0,0,2.2-.78,5,5,0,0,0,1.57-1.35,3.13,3.13,0,0,0,.6-1.89,3.23,3.23,0,0,0-.89-2.35,6.56,6.56,0,0,0-2.13-1.46,15.67,15.67,0,0,0-2.64-.85l-2.45-.54c-1.38-.33-2.68-.71-3.92-1.13a12.08,12.08,0,0,1-3.27-1.71,7.91,7.91,0,0,1-2.28-2.71,8.67,8.67,0,0,1-.85-4,9.29,9.29,0,0,1,1.1-4.6,9.84,9.84,0,0,1,2.92-3.23,13.18,13.18,0,0,1,4.13-1.93,17.63,17.63,0,0,1,4.66-.64,17.22,17.22,0,0,1,6.55,1.28,10.35,10.35,0,0,1,5,4.28Z" transform="translate(0.77 0)"/><path class="cls-4" d="M184,1375.39a8.46,8.46,0,0,0,1,4,9.85,9.85,0,0,0,2.53,3.09,11.61,11.61,0,0,0,3.63,2,13.1,13.1,0,0,0,4.27.71,9.5,9.5,0,0,0,5.19-1.39,16.59,16.59,0,0,0,4.06-3.67l4.84,3.71q-5.34,6.9-14.94,6.9a18.63,18.63,0,0,1-7.23-1.35,15.66,15.66,0,0,1-5.48-3.74,16.52,16.52,0,0,1-3.45-5.62,19.82,19.82,0,0,1-1.21-7,18.56,18.56,0,0,1,1.31-7,17.48,17.48,0,0,1,3.63-5.63,16.67,16.67,0,0,1,5.52-3.73,17.8,17.8,0,0,1,7-1.36,16.73,16.73,0,0,1,7.58,1.57,15,15,0,0,1,5.09,4.09,16.49,16.49,0,0,1,2.88,5.7,23.83,23.83,0,0,1,.89,6.44v2.28Zm20.22-5.13a13.66,13.66,0,0,0-.68-3.91,8.53,8.53,0,0,0-1.82-3.1,8.15,8.15,0,0,0-3-2.06,11,11,0,0,0-4.24-.75,10.47,10.47,0,0,0-7.61,3.2,10.81,10.81,0,0,0-2.1,3.17,8.66,8.66,0,0,0-.75,3.45Z" transform="translate(0.77 0)"/><path class="cls-4" d="M217.94,1336.1h6.41v53.81h-6.41Z" transform="translate(0.77 0)"/><path class="cls-4" d="M233,1360.3a17.87,17.87,0,0,1,6.27-3.74,21.41,21.41,0,0,1,7.12-1.25,19.45,19.45,0,0,1,6.37.93,12.55,12.55,0,0,1,4.37,2.49,9.85,9.85,0,0,1,2.53,3.59,11.38,11.38,0,0,1,.82,4.24v17.22c0,1.19,0,2.28.07,3.28s.12,1.94.21,2.85h-5.69q-.21-2.57-.21-5.13h-.15a12.29,12.29,0,0,1-5,4.63,16,16,0,0,1-6.76,1.35,15.47,15.47,0,0,1-4.49-.64,11,11,0,0,1-3.73-1.92,9.23,9.23,0,0,1-2.53-3.17,10.91,10.91,0,0,1,.53-9.86,11,11,0,0,1,4-3.59,19,19,0,0,1,5.91-2,40.31,40.31,0,0,1,7.22-.61h4.7v-1.42a7.11,7.11,0,0,0-.5-2.57,7,7,0,0,0-1.49-2.31A7.3,7.3,0,0,0,250,1361a9.58,9.58,0,0,0-3.56-.6,13.45,13.45,0,0,0-3.24.35,15,15,0,0,0-2.53.89,11.29,11.29,0,0,0-2.06,1.25c-.62.47-1.21.93-1.78,1.35Zm18.08,13.38a43.75,43.75,0,0,0-4.66.25,17.61,17.61,0,0,0-4.34,1,8.31,8.31,0,0,0-3.2,2,4.5,4.5,0,0,0-1.25,3.27,4.62,4.62,0,0,0,2,4.2,9.51,9.51,0,0,0,5.3,1.28,10.29,10.29,0,0,0,4.48-.88,8.46,8.46,0,0,0,3-2.32,8.92,8.92,0,0,0,1.64-3.16,12.7,12.7,0,0,0,.5-3.46v-2.13Z" transform="translate(0.77 0)"/><path class="cls-4" d="M273.74,1375.39a8.46,8.46,0,0,0,1,4,10.13,10.13,0,0,0,2.53,3.09,11.61,11.61,0,0,0,3.63,2,13.15,13.15,0,0,0,4.27.71,9.51,9.51,0,0,0,5.2-1.39,17,17,0,0,0,4.06-3.67l4.84,3.71q-5.34,6.9-15,6.9a18.63,18.63,0,0,1-7.23-1.35,15.75,15.75,0,0,1-5.48-3.74,16.68,16.68,0,0,1-3.45-5.62,19.82,19.82,0,0,1-1.21-7,18.38,18.38,0,0,1,1.32-7,17.48,17.48,0,0,1,3.63-5.63,16.53,16.53,0,0,1,5.51-3.73,17.8,17.8,0,0,1,7-1.36,16.7,16.7,0,0,1,7.58,1.57A15,15,0,0,1,297,1361a16.16,16.16,0,0,1,2.88,5.7,23.83,23.83,0,0,1,.89,6.44v2.28Zm20.22-5.13a13.66,13.66,0,0,0-.68-3.91,8.65,8.65,0,0,0-1.81-3.1,8.27,8.27,0,0,0-3-2.06,11,11,0,0,0-4.23-.75,10.47,10.47,0,0,0-7.62,3.2,10.81,10.81,0,0,0-2.1,3.17,8.66,8.66,0,0,0-.75,3.45Z" transform="translate(0.77 0)"/><path class="cls-4" d="M307.51,1356.17h6.41v5.19h.14a8.94,8.94,0,0,1,1.71-2.45,11.13,11.13,0,0,1,2.38-1.89,12.84,12.84,0,0,1,2.88-1.24,11,11,0,0,1,3.14-.47,9.05,9.05,0,0,1,2.84.43l-.28,6.9c-.52-.14-1.05-.25-1.57-.35a8.23,8.23,0,0,0-1.56-.14c-3.14,0-5.53.88-7.19,2.63s-2.49,4.48-2.49,8.19v16.94h-6.41Z" transform="translate(0.77 0)"/><path class="cls-4" d="M390.36,1350.4a14.13,14.13,0,0,0-5.41-4.27,16.21,16.21,0,0,0-6.76-1.49,18.07,18.07,0,0,0-7.72,1.6,17.78,17.78,0,0,0-5.91,4.38,19.89,19.89,0,0,0-3.81,6.51,23.39,23.39,0,0,0-1.35,8,22.2,22.2,0,0,0,1.28,7.54,18.84,18.84,0,0,0,3.7,6.26,17.29,17.29,0,0,0,5.91,4.28,19.14,19.14,0,0,0,7.9,1.56,15.64,15.64,0,0,0,7.61-1.78,16.3,16.3,0,0,0,5.56-5l5.76,4.34a22.79,22.79,0,0,1-2,2.24,19.83,19.83,0,0,1-3.77,2.92,26.9,26.9,0,0,1-5.66,2.56,24.08,24.08,0,0,1-7.65,1.11,24.88,24.88,0,0,1-10.79-2.28,26.4,26.4,0,0,1-15.12-23.77,29.6,29.6,0,0,1,1.92-10.79,25.61,25.61,0,0,1,5.37-8.54,24.12,24.12,0,0,1,8.3-5.59,27.89,27.89,0,0,1,10.67-2,26.17,26.17,0,0,1,9.79,1.92,18.24,18.24,0,0,1,7.86,5.91Z" transform="translate(0.77 0)"/><path class="cls-4" d="M407.31,1375.39a8.46,8.46,0,0,0,1,4,10.13,10.13,0,0,0,2.53,3.09,11.72,11.72,0,0,0,3.63,2,13.15,13.15,0,0,0,4.27.71,9.51,9.51,0,0,0,5.2-1.39,17,17,0,0,0,4.06-3.67l4.84,3.71q-5.34,6.9-14.95,6.9a18.63,18.63,0,0,1-7.23-1.35,15.75,15.75,0,0,1-5.48-3.74,16.68,16.68,0,0,1-3.45-5.62,19.82,19.82,0,0,1-1.21-7,18.38,18.38,0,0,1,1.32-7,17.31,17.31,0,0,1,3.63-5.63,16.53,16.53,0,0,1,5.51-3.73,17.8,17.8,0,0,1,7-1.36,16.7,16.7,0,0,1,7.58,1.57,15,15,0,0,1,5.09,4.09,16.16,16.16,0,0,1,2.88,5.7,23.83,23.83,0,0,1,.89,6.44v2.28Zm20.22-5.13a13.66,13.66,0,0,0-.68-3.91,8.65,8.65,0,0,0-1.81-3.1,8.27,8.27,0,0,0-3-2.06,11,11,0,0,0-4.23-.75,10.47,10.47,0,0,0-7.62,3.2,10.81,10.81,0,0,0-2.1,3.17,8.66,8.66,0,0,0-.75,3.45Z" transform="translate(0.77 0)"/><path class="cls-4" d="M441.08,1356.17h6.41v5.19h.14a9.4,9.4,0,0,1,4.2-4.37,13.83,13.83,0,0,1,6.9-1.68,14.58,14.58,0,0,1,4.66.75,10.61,10.61,0,0,1,3.92,2.31,11.36,11.36,0,0,1,2.67,4,15.44,15.44,0,0,1,1,5.8v21.71h-6.4V1370a11.15,11.15,0,0,0-.64-4,7.41,7.41,0,0,0-1.71-2.71,6.24,6.24,0,0,0-2.46-1.49,9,9,0,0,0-2.88-.47,10.61,10.61,0,0,0-3.7.64,7.77,7.77,0,0,0-3,2,9.58,9.58,0,0,0-2,3.53,15.82,15.82,0,0,0-.71,5v17.37h-6.41Z" transform="translate(0.77 0)"/><path class="cls-4" d="M497.83,1361.72h-9.18V1377c0,1,0,1.89.07,2.81a7.46,7.46,0,0,0,.53,2.5,4.07,4.07,0,0,0,1.43,1.77,4.78,4.78,0,0,0,2.81.68,13.77,13.77,0,0,0,2.35-.21,6.72,6.72,0,0,0,2.2-.79v5.84a8.36,8.36,0,0,1-3,.89,21.53,21.53,0,0,1-2.81.25,12.84,12.84,0,0,1-5.73-1,7.07,7.07,0,0,1-3-2.67,8.64,8.64,0,0,1-1.14-3.67c-.12-1.35-.18-2.71-.18-4.09v-17.58h-7.4v-5.55h7.4v-9.47h6.41v9.47h9.18Z" transform="translate(0.77 0)"/><path class="cls-4" d="M508.42,1375.39a8.46,8.46,0,0,0,1,4,9.85,9.85,0,0,0,2.53,3.09,11.61,11.61,0,0,0,3.63,2,13.1,13.1,0,0,0,4.27.71,9.5,9.5,0,0,0,5.19-1.39,16.59,16.59,0,0,0,4.06-3.67l4.84,3.71q-5.34,6.9-14.95,6.9a18.61,18.61,0,0,1-7.22-1.35,15.66,15.66,0,0,1-5.48-3.74,16.37,16.37,0,0,1-3.45-5.62,19.82,19.82,0,0,1-1.21-7,18.56,18.56,0,0,1,1.31-7,17.48,17.48,0,0,1,3.63-5.63,16.57,16.57,0,0,1,5.52-3.73,17.8,17.8,0,0,1,7-1.36,16.76,16.76,0,0,1,7.58,1.57,14.9,14.9,0,0,1,5.08,4.09,16.34,16.34,0,0,1,2.89,5.7,23.83,23.83,0,0,1,.89,6.44v2.28Zm20.21-5.13a13.33,13.33,0,0,0-.67-3.91,8.67,8.67,0,0,0-1.82-3.1,8.15,8.15,0,0,0-3-2.06,11,11,0,0,0-4.24-.75,10.47,10.47,0,0,0-7.61,3.2,10.81,10.81,0,0,0-2.1,3.17,8.66,8.66,0,0,0-.75,3.45Z" transform="translate(0.77 0)"/><path class="cls-4" d="M542.19,1356.17h6.4v5.19h.14a9.16,9.16,0,0,1,1.71-2.45,11.18,11.18,0,0,1,2.39-1.89,12.84,12.84,0,0,1,2.88-1.24,11,11,0,0,1,3.13-.47,9.16,9.16,0,0,1,2.85.43l-.29,6.9c-.52-.14-1-.25-1.56-.35a8.33,8.33,0,0,0-1.57-.14q-4.69,0-7.19,2.63c-1.66,1.76-2.49,4.48-2.49,8.19v16.94h-6.4Z" transform="translate(0.77 0)"/><path class="cls-4" d="M590.8,1361.72h-7.26v-5.55h7.26v-7.55q0-6.75,2.6-10.07t8.93-3.31c.71,0,1.46,0,2.24.07a13.14,13.14,0,0,1,2.53.43l-.71,5.69a9.35,9.35,0,0,0-1.78-.49,10.75,10.75,0,0,0-1.85-.15,6.35,6.35,0,0,0-2.85.54,3.92,3.92,0,0,0-1.67,1.53,5.77,5.77,0,0,0-.78,2.38,24.91,24.91,0,0,0-.18,3.17v7.76h7.61v5.55h-7.68v28.19H590.8Z" transform="translate(0.77 0)"/><path class="cls-4" d="M607.79,1373a17.13,17.13,0,0,1,1.39-6.91,18.17,18.17,0,0,1,23.59-9.43,17.73,17.73,0,0,1,9.5,9.43,17.13,17.13,0,0,1,1.39,6.91,17.58,17.58,0,0,1-5.19,12.56,18.1,18.1,0,0,1-5.7,3.77,18.55,18.55,0,0,1-14.09,0,17.94,17.94,0,0,1-5.69-3.77,17.53,17.53,0,0,1-5.2-12.56Zm6.83,0a13.65,13.65,0,0,0,.79,4.73,10.58,10.58,0,0,0,2.2,3.7,10.16,10.16,0,0,0,3.49,2.42,12.46,12.46,0,0,0,9.25,0,10.16,10.16,0,0,0,3.49-2.42,10.76,10.76,0,0,0,2.21-3.7,14.76,14.76,0,0,0,0-9.47,10.85,10.85,0,0,0-2.21-3.7,10.29,10.29,0,0,0-3.49-2.42,12.46,12.46,0,0,0-9.25,0,10.29,10.29,0,0,0-3.49,2.42,10.68,10.68,0,0,0-2.2,3.7A13.71,13.71,0,0,0,614.62,1373Z" transform="translate(0.77 0)"/><path class="cls-4" d="M650.5,1356.17h6.41v5.19h.14a9.16,9.16,0,0,1,1.71-2.45,11.13,11.13,0,0,1,2.38-1.89,12.72,12.72,0,0,1,2.89-1.24,10.9,10.9,0,0,1,3.13-.47,9.05,9.05,0,0,1,2.84.43l-.28,6.9c-.52-.14-1-.25-1.57-.35a8.23,8.23,0,0,0-1.56-.14q-4.7,0-7.19,2.63c-1.66,1.76-2.49,4.48-2.49,8.19v16.94H650.5Z" transform="translate(0.77 0)"/><path class="cls-4" d="M721.39,1391.19a27.17,27.17,0,0,1-10.6-2,24.65,24.65,0,0,1-8.29-5.59,25.55,25.55,0,0,1-5.41-8.4,28.89,28.89,0,0,1,0-20.92,25.55,25.55,0,0,1,5.41-8.4,24.51,24.51,0,0,1,8.29-5.59,28.72,28.72,0,0,1,21.21,0,24.51,24.51,0,0,1,8.29,5.59,25.71,25.71,0,0,1,5.41,8.4,28.89,28.89,0,0,1,0,20.92,25.71,25.71,0,0,1-5.41,8.4,24.65,24.65,0,0,1-8.29,5.59A27.22,27.22,0,0,1,721.39,1391.19Zm0-6.41a18.3,18.3,0,0,0,13.81-5.91,19.06,19.06,0,0,0,3.85-6.37,23.15,23.15,0,0,0,0-15.58,19.2,19.2,0,0,0-3.85-6.38,18.88,18.88,0,0,0-27.61,0,18.88,18.88,0,0,0-3.85,6.38,23.15,23.15,0,0,0,0,15.58,18.74,18.74,0,0,0,3.85,6.37,18.26,18.26,0,0,0,13.8,5.91Z" transform="translate(0.77 0)"/><path class="cls-4" d="M755.12,1356.17h6.41V1361h.14a12.23,12.23,0,0,1,5.09-4.2,15.69,15.69,0,0,1,6.66-1.5,17.91,17.91,0,0,1,7.08,1.36,15.74,15.74,0,0,1,5.41,3.77,17.05,17.05,0,0,1,3.45,5.66,19.59,19.59,0,0,1,1.21,6.94,19.82,19.82,0,0,1-1.21,7,16.68,16.68,0,0,1-3.45,5.62,15.94,15.94,0,0,1-5.41,3.74,17.91,17.91,0,0,1-7.08,1.35,15.7,15.7,0,0,1-6.84-1.53,11.75,11.75,0,0,1-4.91-4.16h-.14V1410h-6.41Zm17.51,5.12a11.57,11.57,0,0,0-4.62.89,10.29,10.29,0,0,0-3.49,2.42,10.7,10.7,0,0,0-2.21,3.7,14.76,14.76,0,0,0,0,9.47,10.6,10.6,0,0,0,2.21,3.7,10.16,10.16,0,0,0,3.49,2.42,12.46,12.46,0,0,0,9.25,0,10.16,10.16,0,0,0,3.49-2.42,10.58,10.58,0,0,0,2.2-3.7,14.59,14.59,0,0,0,0-9.47,10.68,10.68,0,0,0-2.2-3.7,10.29,10.29,0,0,0-3.49-2.42A11.65,11.65,0,0,0,772.63,1361.29Z" transform="translate(0.77 0)"/><path class="cls-4" d="M802.31,1375.39a8.46,8.46,0,0,0,1,4,10.13,10.13,0,0,0,2.53,3.09,11.61,11.61,0,0,0,3.63,2,13.15,13.15,0,0,0,4.27.71,9.53,9.53,0,0,0,5.2-1.39,16.74,16.74,0,0,0,4.05-3.67l4.85,3.71q-5.34,6.9-14.95,6.9a18.63,18.63,0,0,1-7.23-1.35,15.75,15.75,0,0,1-5.48-3.74,16.68,16.68,0,0,1-3.45-5.62,19.82,19.82,0,0,1-1.21-7,18.38,18.38,0,0,1,1.32-7,17.15,17.15,0,0,1,3.63-5.63,16.53,16.53,0,0,1,5.51-3.73,17.8,17.8,0,0,1,7-1.36,16.73,16.73,0,0,1,7.58,1.57,15,15,0,0,1,5.09,4.09,16.16,16.16,0,0,1,2.88,5.7,23.83,23.83,0,0,1,.89,6.44v2.28Zm20.22-5.13a13.66,13.66,0,0,0-.68-3.91,8.65,8.65,0,0,0-1.81-3.1,8.27,8.27,0,0,0-3-2.06,11,11,0,0,0-4.23-.75,10.47,10.47,0,0,0-7.62,3.2,10.81,10.81,0,0,0-2.1,3.17,8.66,8.66,0,0,0-.75,3.45Z" transform="translate(0.77 0)"/><path class="cls-4" d="M836.08,1356.17h6.41v5.19h.14a9.35,9.35,0,0,1,4.2-4.37,13.83,13.83,0,0,1,6.9-1.68,14.58,14.58,0,0,1,4.66.75,10.61,10.61,0,0,1,3.92,2.31,11.36,11.36,0,0,1,2.67,4,15.44,15.44,0,0,1,1,5.8v21.71h-6.4V1370a11.15,11.15,0,0,0-.64-4,7.41,7.41,0,0,0-1.71-2.71,6.24,6.24,0,0,0-2.46-1.49,9,9,0,0,0-2.88-.47,10.61,10.61,0,0,0-3.7.64,7.77,7.77,0,0,0-3,2,9.58,9.58,0,0,0-2,3.53,15.82,15.82,0,0,0-.71,5v17.37h-6.41Z" transform="translate(0.77 0)"/><path class="cls-4" d="M898.57,1379.37a11.18,11.18,0,0,0,4.74,4.09,14.11,14.11,0,0,0,5.94,1.32,12.33,12.33,0,0,0,3.49-.53,10.89,10.89,0,0,0,3.24-1.6,8.85,8.85,0,0,0,2.38-2.64,7,7,0,0,0,.93-3.63,5.44,5.44,0,0,0-1.86-4.45,15.93,15.93,0,0,0-4.59-2.56c-1.82-.69-3.82-1.35-6-2a24.13,24.13,0,0,1-6-2.67,14.57,14.57,0,0,1-4.59-4.59,14.24,14.24,0,0,1-1.86-7.8,12.87,12.87,0,0,1,1-4.69,13.06,13.06,0,0,1,3-4.56,16.72,16.72,0,0,1,5.3-3.45,19.67,19.67,0,0,1,7.8-1.39,27.19,27.19,0,0,1,7.9,1.14,13.58,13.58,0,0,1,6.62,4.63l-5.55,5a9.23,9.23,0,0,0-3.63-3.2,11.47,11.47,0,0,0-5.34-1.21,13.17,13.17,0,0,0-4.74.74,8.5,8.5,0,0,0-3,1.93,6.76,6.76,0,0,0-1.6,2.52,7.72,7.72,0,0,0-.46,2.49,6.37,6.37,0,0,0,1.84,4.92,14.57,14.57,0,0,0,4.6,2.77,55.93,55.93,0,0,0,6,1.92,25.5,25.5,0,0,1,6,2.39,13.87,13.87,0,0,1,4.6,4.13,12.15,12.15,0,0,1,1.85,7.15,15.16,15.16,0,0,1-1.39,6.55,14.61,14.61,0,0,1-3.74,4.91,16.61,16.61,0,0,1-5.55,3.06,21.52,21.52,0,0,1-6.83,1.07,24.88,24.88,0,0,1-9.19-1.71,15.15,15.15,0,0,1-6.9-5.27Z" transform="translate(0.77 0)"/><path class="cls-4" d="M932,1373a17.3,17.3,0,0,1,1.39-6.91,18.14,18.14,0,0,1,3.81-5.62,18,18,0,0,1,29.29,5.62,17.3,17.3,0,0,1,1.39,6.91,17.53,17.53,0,0,1-5.2,12.56,18.24,18.24,0,0,1-25.48,0A17.53,17.53,0,0,1,932,1373Zm6.84,0a13.89,13.89,0,0,0,.78,4.73,10.6,10.6,0,0,0,2.21,3.7,10.21,10.21,0,0,0,3.48,2.42,12.49,12.49,0,0,0,9.26,0,10.25,10.25,0,0,0,3.49-2.42,10.74,10.74,0,0,0,2.2-3.7,14.59,14.59,0,0,0,0-9.47,10.83,10.83,0,0,0-2.2-3.7,10.39,10.39,0,0,0-3.49-2.42,12.49,12.49,0,0,0-9.26,0,10.35,10.35,0,0,0-3.48,2.42,10.7,10.7,0,0,0-2.21,3.7A14,14,0,0,0,938.79,1373Z" transform="translate(0.77 0)"/><path class="cls-4" d="M1004.3,1389.91h-6.41v-5.2h-.14a9.52,9.52,0,0,1-4.2,4.38,13.93,13.93,0,0,1-6.9,1.67,14.51,14.51,0,0,1-4.7-.75,10.61,10.61,0,0,1-3.88-2.31,11,11,0,0,1-2.67-4,15.47,15.47,0,0,1-1-5.8v-21.71h6.41v19.93a11.23,11.23,0,0,0,.64,4,7.37,7.37,0,0,0,1.71,2.7,6.42,6.42,0,0,0,2.45,1.5,9.06,9.06,0,0,0,2.89.46,10.42,10.42,0,0,0,3.7-.64,7.73,7.73,0,0,0,3-2,9.54,9.54,0,0,0,2-3.52,16.15,16.15,0,0,0,.71-5v-17.37h6.41Z" transform="translate(0.77 0)"/><path class="cls-4" d="M1012.92,1356.17h6.4v5.19h.15a8.73,8.73,0,0,1,1.71-2.45,11.13,11.13,0,0,1,2.38-1.89,12.84,12.84,0,0,1,2.88-1.24,11,11,0,0,1,3.13-.47,9.07,9.07,0,0,1,2.85.43l-.28,6.9c-.53-.14-1.05-.25-1.57-.35a8.26,8.26,0,0,0-1.57-.14q-4.7,0-7.18,2.63c-1.67,1.76-2.5,4.48-2.5,8.19v16.94h-6.4Z" transform="translate(0.77 0)"/><path class="cls-4" d="M1061.23,1365.14a13.5,13.5,0,0,0-3.73-2.82,10.52,10.52,0,0,0-4.67-1,10.34,10.34,0,0,0-4.59,1A9.47,9.47,0,0,0,1045,1365a11.68,11.68,0,0,0-2,3.84,14.87,14.87,0,0,0-.68,4.52,12.66,12.66,0,0,0,.78,4.45,11.25,11.25,0,0,0,2.21,3.67,10.16,10.16,0,0,0,3.42,2.45,10.89,10.89,0,0,0,4.48.89,10.31,10.31,0,0,0,4.63-1,12,12,0,0,0,3.56-2.81l4.55,4.55a14.35,14.35,0,0,1-5.8,4,20.22,20.22,0,0,1-7,1.21,19.32,19.32,0,0,1-7.15-1.28,16.45,16.45,0,0,1-5.59-3.6,15.74,15.74,0,0,1-3.63-5.55,19.15,19.15,0,0,1-1.28-7.15,19.44,19.44,0,0,1,1.28-7.19,16,16,0,0,1,9.14-9.29,19,19,0,0,1,7.23-1.32,19.3,19.3,0,0,1,7.08,1.32,15.65,15.65,0,0,1,5.87,4Z" transform="translate(0.77 0)"/><path class="cls-4" d="M1074.91,1375.39a8.46,8.46,0,0,0,1,4,10,10,0,0,0,2.52,3.09,11.84,11.84,0,0,0,3.63,2,13.15,13.15,0,0,0,4.27.71,9.51,9.51,0,0,0,5.2-1.39,17,17,0,0,0,4.06-3.67l4.84,3.71q-5.34,6.9-15,6.9a18.63,18.63,0,0,1-7.23-1.35,15.84,15.84,0,0,1-5.48-3.74,16.68,16.68,0,0,1-3.45-5.62,19.82,19.82,0,0,1-1.21-7,18.38,18.38,0,0,1,1.32-7,17.48,17.48,0,0,1,3.63-5.63,16.47,16.47,0,0,1,5.52-3.73,17.75,17.75,0,0,1,7-1.36,16.7,16.7,0,0,1,7.58,1.57,14.94,14.94,0,0,1,5.09,4.09,16.16,16.16,0,0,1,2.88,5.7,23.44,23.44,0,0,1,.89,6.44v2.28Zm20.21-5.13a13.32,13.32,0,0,0-.68-3.91,8.65,8.65,0,0,0-1.81-3.1,8.27,8.27,0,0,0-3-2.06,11,11,0,0,0-4.23-.75,10.47,10.47,0,0,0-7.62,3.2,10.81,10.81,0,0,0-2.1,3.17,8.65,8.65,0,0,0-.74,3.45Z" transform="translate(0.77 0)"/><path class="cls-1" d="M4198,0H3906.9a72.21,72.21,0,0,0-72,72V363.13a72.21,72.21,0,0,0,72,72H4198a72.21,72.21,0,0,0,72-72V72A72.21,72.21,0,0,0,4198,0Zm-49.3,310.35a17.93,17.93,0,0,1-5,26,18.19,18.19,0,0,1-24-4.93l-51.95-69.87a17.93,17.93,0,0,1,4.53-26.18,18.35,18.35,0,0,1,5.57-2.33,51.18,51.18,0,0,0,38.76-51.5c-.89-27.3-24.74-49.6-52-49.6H4004.1a5.79,5.79,0,0,0-5.79,5.79v183.4A17.93,17.93,0,0,1,3978.75,339a18.18,18.18,0,0,1-16.3-18.26V114a17.93,17.93,0,0,1,17.93-17.93h83.94c47.29,0,86.76,37.27,88.16,84.54a87,87,0,0,1-42.51,77.6h0Z" transform="translate(0.77 0)"/><path class="cls-3" d="M2598.51,0H2307.39a72.21,72.21,0,0,0-72,72V363.13a72.21,72.21,0,0,0,72,72h291.12a72.21,72.21,0,0,0,72-72V72A72.21,72.21,0,0,0,2598.51,0Zm-49.29,310.35a17.94,17.94,0,0,1-5,26,18.19,18.19,0,0,1-24-4.93l-52-69.87a18,18,0,0,1,4.54-26.18,18.29,18.29,0,0,1,5.56-2.33,51.18,51.18,0,0,0,38.77-51.5c-.89-27.3-24.74-49.6-52.05-49.6h-60.48a5.78,5.78,0,0,0-5.78,5.79v183.4A17.93,17.93,0,0,1,2379.24,339a18.18,18.18,0,0,1-16.3-18.26V114a17.93,17.93,0,0,1,17.93-17.93h83.93c47.3,0,86.77,37.27,88.17,84.54a87,87,0,0,1-42.51,77.6h0Z" transform="translate(0.77 0)"/><path class="cls-4" d="M1036.79,0H745.67a72.21,72.21,0,0,0-72,72V363.13a72.21,72.21,0,0,0,72,72h291.12a72.21,72.21,0,0,0,72-72V72A72.21,72.21,0,0,0,1036.79,0ZM987.5,310.35a17.94,17.94,0,0,1-5,26,18.19,18.19,0,0,1-24-4.93l-52-69.87a17.93,17.93,0,0,1,4.54-26.18,18.29,18.29,0,0,1,5.56-2.33,51.18,51.18,0,0,0,38.77-51.5c-.89-27.3-24.74-49.6-52-49.6H842.86a5.78,5.78,0,0,0-5.78,5.79v183.4A17.93,17.93,0,0,1,817.52,339a18.18,18.18,0,0,1-16.3-18.26V114a17.93,17.93,0,0,1,17.93-17.93h83.93c47.3,0,86.77,37.27,88.17,84.54a87,87,0,0,1-42.51,77.6h0Z" transform="translate(0.77 0)"/></svg>